<!DOCTYPE svg PUBLIC "-//W3C//DTD SVG 1.1//EN" "http://www.w3.org/Graphics/SVG/1.1/DTD/svg11.dtd">
<!-- Uploaded to: SVG Repo, www.svgrepo.com, Transformed by: SVG Repo Mixer Tools -->
<svg fill="#ffffff" version="1.1" id="Layer_1" xmlns="http://www.w3.org/2000/svg" xmlns:xlink="http://www.w3.org/1999/xlink" viewBox="0 0 512.00 512.00" xml:space="preserve" width="800px" height="800px" stroke="#ffffff" stroke-width="0.00512">
<g id="SVGRepo_bgCarrier" stroke-width="0">
<rect x="0" y="0" width="512.00" height="512.00" rx="256" fill="#38571a" strokewidth="0"/>
</g>
<g id="SVGRepo_tracerCarrier" stroke-linecap="round" stroke-linejoin="round"/>
<g id="SVGRepo_iconCarrier"> <g> <g> <path d="M437.025,74.975C388.676,26.627,324.386,0,256,0S123.324,26.627,74.975,74.975C26.627,123.324,0,187.614,0,256 s26.627,132.676,74.975,181.025C123.324,485.373,187.614,512,256,512s132.676-26.627,181.025-74.975 C485.373,388.676,512,324.386,512,256S485.373,123.324,437.025,74.975z M425.828,425.828 C380.469,471.186,320.156,496.165,256,496.165s-124.469-24.979-169.828-70.337C40.814,380.469,15.835,320.156,15.835,256 S40.814,131.531,86.172,86.172C131.531,40.814,191.844,15.835,256,15.835s124.469,24.979,169.828,70.337 c45.358,45.359,70.337,105.672,70.337,169.828S471.186,380.469,425.828,425.828z"/> </g> </g> <g> <g> <path d="M399.706,112.294C361.331,73.918,310.295,52.784,256,52.784s-105.331,21.135-143.706,59.51S52.784,201.705,52.784,256 s21.135,105.331,59.51,143.706c38.376,38.376,89.411,59.51,143.706,59.51s105.331-21.134,143.706-59.51 c38.376-38.376,59.51-89.411,59.51-143.706S438.082,150.669,399.706,112.294z M256,443.381 c-103.323,0-187.381-84.059-187.381-187.381S152.677,68.619,256,68.619S443.381,152.677,443.381,256S359.323,443.381,256,443.381z "/> </g> </g> <g> <g> <path d="M256,110.845c-65.485,0-118.763,53.278-118.763,118.763c0,42.044,22.128,80.753,58.062,102.149v58.841h121.402v-58.841 c35.934-21.395,58.062-60.105,58.062-102.149C374.763,164.123,321.485,110.845,256,110.845z M305.007,320.194l-4.141,2.247v52.321 h-36.948V319.34h-15.835v55.423h-36.948v-52.322l-4.141-2.247c-33.26-18.05-53.92-52.76-53.92-90.585 c0-56.755,46.173-102.928,102.928-102.928s102.928,46.173,102.928,102.928C358.928,267.433,338.267,302.143,305.007,320.194z"/> </g> </g> <g> <g> <path d="M211.134,179.464c-20.373,0-36.948,16.575-36.948,36.948c0,20.373,16.575,36.948,36.948,36.948 s36.948-16.575,36.948-36.948C248.082,196.039,231.507,179.464,211.134,179.464z M211.134,237.526 c-11.642,0-21.113-9.471-21.113-21.113c0-11.642,9.471-21.113,21.113-21.113s21.113,9.471,21.113,21.113 C232.247,228.054,222.776,237.526,211.134,237.526z"/> </g> </g> <g> <g> <path d="M300.866,179.464c-20.373,0-36.948,16.575-36.948,36.948c0,20.373,16.575,36.948,36.948,36.948 c20.373,0,36.948-16.575,36.948-36.948C337.814,196.039,321.239,179.464,300.866,179.464z M300.866,237.526 c-11.642,0-21.113-9.471-21.113-21.113c0-11.642,9.471-21.113,21.113-21.113c11.642,0,21.113,9.471,21.113,21.113 C321.979,228.054,312.508,237.526,300.866,237.526z"/> </g> </g> <g> <g> <rect x="240.165" y="274.474" width="31.67" height="15.835"/> </g> </g> <g> <g> <path d="M105.567,256H89.732c0,50.075,22.221,96.979,60.965,128.689l10.029-12.253C125.672,343.745,105.567,301.306,105.567,256z"/> </g> </g> <g> <g> <path d="M406.433,256c0,44.599-19.631,86.637-53.859,115.335l10.174,12.134c37.826-31.713,59.521-78.174,59.521-127.469H406.433z"/> </g> </g> </g>
</svg>