<?xml version="1.0" encoding="UTF-8" standalone="no"?>
<!-- Created with Inkscape (http://www.inkscape.org/) -->

<svg
   width="4000mm"
   height="4000mm"
   viewBox="0 0 4000 4000"
   version="1.1"
   id="svg1"
   inkscape:version="1.4 (e7c3feb1, 2024-10-09)"
   sodipodi:docname="map.svg"
   inkscape:export-filename="Pictures/blah.svg"
   inkscape:export-xdpi="96"
   inkscape:export-ydpi="96"
   xmlns:inkscape="http://www.inkscape.org/namespaces/inkscape"
   xmlns:sodipodi="http://sodipodi.sourceforge.net/DTD/sodipodi-0.dtd"
   xmlns="http://www.w3.org/2000/svg"
   xmlns:svg="http://www.w3.org/2000/svg">
  <sodipodi:namedview
     id="namedview1"
     pagecolor="#505050"
     bordercolor="#eeeeee"
     borderopacity="1"
     inkscape:showpageshadow="0"
     inkscape:pageopacity="0"
     inkscape:pagecheckerboard="0"
     inkscape:deskcolor="#505050"
     inkscape:document-units="mm"
     inkscape:zoom="0.11437407"
     inkscape:cx="6929.0181"
     inkscape:cy="7042.6802"
     inkscape:window-width="1440"
     inkscape:window-height="900"
     inkscape:window-x="0"
     inkscape:window-y="0"
     inkscape:window-maximized="0"
     inkscape:current-layer="layer2"
     showguides="true" />
  <defs
     id="defs1">
    <inkscape:path-effect
       effect="spiro"
       id="path-effect1847"
       is_visible="true"
       lpeversion="1" />
    <inkscape:path-effect
       effect="spiro"
       id="path-effect1836"
       is_visible="true"
       lpeversion="1" />
    <inkscape:path-effect
       effect="spiro"
       id="path-effect1834"
       is_visible="true"
       lpeversion="1" />
    <inkscape:path-effect
       effect="spiro"
       id="path-effect1833"
       is_visible="true"
       lpeversion="1" />
    <inkscape:path-effect
       effect="line_segment"
       id="path-effect3"
       is_visible="true"
       lpeversion="1"
       end_type="open_both" />
    <inkscape:path-effect
       effect="line_segment"
       id="path-effect1"
       is_visible="true"
       lpeversion="1"
       end_type="open_both" />
    <inkscape:path-effect
       effect="line_segment"
       id="path-effect1-1"
       is_visible="true"
       lpeversion="1"
       end_type="open_both" />
    <inkscape:path-effect
       effect="line_segment"
       id="path-effect1-2"
       is_visible="true"
       lpeversion="1"
       end_type="open_both" />
  </defs>
  <g
     inkscape:label="Maps"
     inkscape:groupmode="layer"
     id="layer1">
    <path
       d="m 1999.9999,-0.99993896 c -530.3636,0 -1039.0034,210.57391896 -1414.19535,585.39062896 l 1.41387,1.41386 C 961.79986,211.59811 1469.529,1.2894121 1999.002,1.0247437 V 0 h 1.9999 V 1.0247437 C 2530.4734,1.2905072 3038.2009,211.59909 3412.7814,585.80455 l 1.4138,-1.41386 C 3039.0033,209.57398 2530.3635,-0.99993896 1999.9999,-0.99993896 Z M 584.39069,585.80455 C 209.57398,960.9965 -0.99993896,1469.6363 -0.99993896,1999.9999 c 0,528.0793 207.88053896,1033.4854 579.67314896,1408.204 0.47746,-0.5449 0.83887,-0.7289 1.41386,-1.171 C 208.90407,3032.9258 1.2885429,2528.1872 1.0247437,2000.9988 H 0 v -1.9999 H 1.0247437 C 1.2902334,1469.527 211.59885,961.79913 585.80455,587.21842 Z m 2831.21891,0 -1.4139,1.41387 c 374.2056,374.58068 584.5138,882.30878 584.7793,1411.78048 h 1.0253 v 1.9999 h -1.0253 c -0.2649,529.4725 -210.5732,1037.2014 -584.7793,1411.7826 l 1.4139,1.4138 c 374.8165,-375.1919 585.3906,-883.8318 585.3906,-1414.1953 0,-530.3635 -210.5741,-1039.00342 -585.3906,-1414.19535 z m -2.8282,2828.39065 c -374.5805,374.2055 -882.308,584.5141 -1411.7795,584.7798 v 1.0248 h -1.9999 v -1.0248 c -527.2256,-0.2635 -1031.83006,-207.7787 -1405.94518,-579.0106 -0.44226,0.5749 -0.66934,0.8699 -1.21439,1.3472 374.72635,371.8412 880.04137,579.6886 1408.15747,579.6886 530.3636,0 1039.0034,-210.5744 1414.1953,-585.3911 z"
       style="baseline-shift:baseline;display:inline;overflow:visible;vector-effect:none;fill:#ffffff;enable-background:accumulate;stop-color:#000000;stop-opacity:1"
       id="path1572" />
    <path
       d="m 1999.002,1659.0253 c -75.8624,0.2187 -145.896,25.2036 -202.4419,67.3096 0.4511,0.512 0.3502,1.3543 0.7808,1.8842 56.2804,-42.0331 126.0595,-66.9748 201.6611,-67.1939 z m 1.9999,0 v 1.9999 c 92.859,0.2702 176.9197,37.8605 237.9875,98.5713 l 1.4056,-1.4056 c -61.4326,-61.0756 -145.9935,-98.8953 -239.3931,-99.1656 z m 240.8075,100.5794 -1.4056,1.4056 c 60.7109,61.0681 98.3008,145.1293 98.5707,237.9886 h 0.1571 c 0.026,-1.6385 1.5811,-2.557 1.7379,-4.1522 -1.3653,-91.7459 -38.8944,-174.7245 -99.0601,-235.242 z m -515.5866,37.113 c -42.0357,56.5181 -66.9784,126.4894 -67.1975,202.2812 h 1.9999 c 0.2196,-75.531 25.1191,-145.2477 67.0817,-201.5003 -0.5302,-0.4303 -1.3718,-0.3301 -1.8841,-0.7809 z m -67.1975,204.2811 c 0.2695,93.4008 38.0893,177.9629 99.1656,239.3962 l 1.4056,-1.4056 c -60.7115,-61.0685 -98.3019,-145.1303 -98.5713,-237.9906 z m 679.9492,0 c -0.2693,92.8603 -37.8597,176.9221 -98.5712,237.9906 l 1.4056,1.4056 c 60.1808,-60.5325 97.7145,-143.5369 99.0622,-235.3102 -0.1554,-1.5705 -1.6871,-2.4734 -1.7162,-4.086 z m -99.9851,239.4045 c -61.0678,60.7108 -145.1285,98.3011 -237.9875,98.5712 v 1.9999 c 93.3996,-0.2702 177.9605,-38.0899 239.3931,-99.1655 z m -477.9791,5e-4 -1.4056,1.4056 c 61.4336,61.0764 145.9962,98.8959 239.3973,99.165 v -1.9999 c -92.8605,-0.269 -176.9229,-37.8591 -237.9917,-98.5707 z"
       style="baseline-shift:baseline;display:inline;overflow:visible;vector-effect:none;fill:#ffffff;enable-background:accumulate;stop-color:#000000;stop-opacity:1"
       id="path1571" />
    <path
       d="m 1999.002,1959.0251 c -10.5609,0.2535 -20.1316,4.5023 -27.2645,11.2975 l 1.4051,1.4051 c 6.7678,-6.4308 15.84,-10.4502 25.8594,-10.7022 z m 1.9999,0 v 2.0004 c 10.018,0.253 19.0888,4.2726 25.8558,10.7027 l 1.4051,-1.4051 c -7.132,-6.7946 -16.7013,-11.0435 -27.2609,-11.298 z m -30.6788,12.7119 c -4.6687,4.9005 -8.1396,10.9485 -9.9358,17.6827 0.5502,0.028 0.7614,0.5301 1.0325,0.9689 0.1777,0.037 0.2628,0.1886 0.355,0.3333 0.1374,0.036 0.1474,0.2233 0.2822,0.2651 1.6113,-6.8166 5.0069,-12.9363 9.6712,-17.8449 z m 59.354,0 -1.4056,1.4056 c 6.4305,6.7671 10.4505,15.8379 10.7033,25.8563 h 1.9998 c -0.2542,-10.5599 -4.5027,-20.1297 -11.2975,-27.2619 z m 9.2977,29.2618 c -0.2523,10.0193 -4.2723,19.0911 -10.7033,25.8589 l 1.4051,1.4051 c 6.7953,-7.1327 11.0443,-16.7032 11.298,-27.264 z m -76.8822,8.17 c -0.1368,0.043 -0.1448,0.2334 -0.2842,0.2708 -0.091,0.1454 -0.175,0.2971 -0.3524,0.3349 -0.2669,0.4393 -0.4742,0.9404 -1.0217,0.9715 1.8088,6.6673 5.2587,12.6567 9.8888,17.5168 l 1.4051,-1.4051 c -4.6287,-4.8713 -8.009,-10.9347 -9.635,-17.6889 -2e-4,10e-5 -4e-4,0 -6e-4,0 z m 11.05,19.1027 -1.4056,1.4056 c 7.1329,6.7954 16.7039,11.0441 27.265,11.2975 v -1.9998 c -10.0197,-0.252 -19.0916,-4.2721 -25.8594,-10.7033 z m 53.7151,0 c -6.7671,6.4304 -15.8377,10.4503 -25.8558,10.7033 v 1.9998 c 10.5596,-0.2545 20.1289,-4.5033 27.2609,-11.298 z"
       style="baseline-shift:baseline;display:inline;overflow:visible;vector-effect:none;fill:#ffffff;enable-background:accumulate;stop-color:#000000;stop-opacity:1"
       id="path1570" />
    <path
       d="m 1999.002,1919.0255 c -21.6051,0.2623 -41.1709,8.984 -55.5485,23.0131 l 1.405,1.405 c 14.013,-13.6644 33.0794,-22.1565 54.1435,-22.4182 z m 1.9999,0 v 1.9999 c 18.6104,0.2322 34.7038,5.7434 48.089,16.7168 0.4468,-0.5726 0.5912,-0.7698 1.1405,-1.2439 -13.7551,-11.3352 -30.0761,-17.2393 -49.2295,-17.4728 z m -58.9628,24.4275 c -14.0287,14.377 -22.7505,33.9418 -23.0136,55.5459 h 1.9999 c 0.2625,-21.0631 8.7548,-40.1285 22.4188,-54.1409 z m 121.3585,6.6119 c -0.4731,0.5492 -0.3831,0.3929 -0.9545,0.8398 11.0094,13.3963 16.2994,29.4495 16.5318,48.0942 h 1.9999 c -0.2337,-19.1877 -6.2058,-35.1679 -17.5772,-48.934 z m -144.3721,50.9339 c 0.2625,21.6048 8.9841,41.1709 23.0131,55.5485 l 1.4056,-1.4056 c -13.6644,-14.0129 -22.1568,-33.079 -22.4188,-54.1429 z m 159.9494,0 c -0.262,21.064 -8.7542,40.1306 -22.4188,54.1435 l 1.4051,1.405 c 14.0292,-14.3776 22.751,-33.9436 23.0136,-55.5485 z m -134.1169,55.5573 -1.405,1.4051 c 14.3777,14.0294 33.9437,22.7513 55.549,23.0136 v -1.9999 c -21.0643,-0.2617 -40.131,-8.7541 -54.144,-22.4188 z m 110.2843,0 c -14.0123,13.6639 -33.0777,22.156 -54.1404,22.4188 v 1.9999 c 21.6037,-0.2634 41.1685,-8.9851 55.5454,-23.0136 z"
       style="baseline-shift:baseline;display:inline;overflow:visible;vector-effect:none;fill:#ffffff;enable-background:accumulate;stop-color:#000000;stop-opacity:1"
       id="path1569" />
    <path
       d="m 1999.002,1869.5272 c -35.2728,0.2657 -67.2113,14.5262 -90.549,37.5109 l 1.4051,1.4051 c 22.973,-22.6199 54.4118,-36.6507 89.1439,-36.9161 z m 1.9999,0 v 1.9999 c 34.7307,0.2665 66.1682,14.2973 89.1403,36.9166 l 1.4051,-1.4051 c -23.3368,-22.9841 -55.2739,-37.2446 -90.5454,-37.5114 z m -93.9633,38.9253 c -22.9843,23.337 -37.2449,55.2745 -37.5114,90.5464 h 1.9999 c 0.2662,-34.7311 14.297,-66.169 36.9166,-89.1413 z m 185.9231,0 -1.4051,1.4051 c 22.6194,22.9723 36.6498,54.4103 36.9161,89.1413 h 1.9998 c -0.2665,-35.2718 -14.5266,-67.2094 -37.5108,-90.5464 z m -223.4345,92.5463 c 0.266,35.2727 14.5266,67.211 37.5114,90.5485 l 1.4051,-1.4051 c -22.62,-22.9728 -36.6509,-54.4115 -36.9166,-89.1434 z m 258.9455,0 c -0.2657,34.7319 -14.2966,66.1706 -36.9166,89.1434 l 1.405,1.4051 c 22.9848,-23.3375 37.2455,-55.2758 37.5114,-90.5485 z m -38.3305,90.5573 c -21.0377,20.7147 -49.1798,34.2061 -80.4457,36.5404 0.071,0.3034 0.5261,0.3048 0.5818,0.6097 9e-4,0 0.01,0 0.01,0.01 3e-4,2e-4 7e-4,4e-4 0,6e-4 0.4126,0.232 0.8765,0.417 0.8765,0.9188 0,0.2056 -0.3518,0.1803 -0.3644,0.3819 0,2e-4 -5e-4,2e-4 -5e-4,5e-4 31.3677,-2.5735 59.5934,-16.2212 80.7481,-37.0562 z m -180.2846,5e-4 -1.4051,1.4051 c 21.2322,20.9112 49.5881,34.5808 81.0938,37.0819 -10e-5,-8e-4 -0,-7e-4 -0,-0 -0.018,-0.2072 -0.372,-0.1914 -0.3767,-0.4031 0,-0 -0,-0 -0,-0 0,-8e-4 -0,-7e-4 -0,-0 0,-0 0.01,-0 0.01,-0.01 0.01,-0.4825 0.4455,-0.6712 0.8413,-0.9002 0,-0.036 0.061,-0.034 0.066,-0.07 0.096,-0.1967 0.3364,-0.2869 0.447,-0.4785 0.01,-0.031 0.051,-0.031 0.058,-0.062 -31.3767,-2.2749 -59.6229,-15.7853 -80.7228,-36.5611 z"
       style="baseline-shift:baseline;display:inline;overflow:visible;vector-effect:none;fill:#ffffff;enable-background:accumulate;stop-color:#000000;stop-opacity:1"
       id="path1568" />
    <path
       d="m 2001.0019,1599.0249 v 1.9999 c 105.1251,0.2643 205.887,42.0028 280.4082,116.151 l 1.4165,-1.4164 c -74.8958,-74.5226 -176.17,-116.4702 -281.8247,-116.7345 z m -1.9999,5e-4 c -109.9697,0.2695 -209.532,44.8049 -281.8236,116.7391 l 1.4056,1.4056 c 71.9268,-71.5693 170.9888,-115.8754 280.418,-116.1448 z m 285.2384,118.1483 -1.4159,1.416 c 60.4041,60.7081 99.3201,138.8241 111.8081,222.5363 0.721,-0.072 1.1683,-0.7335 1.8966,-0.7804 -12.6287,-83.9496 -51.6974,-162.2772 -112.2888,-223.1719 z m -568.479,0 c -71.9314,72.2906 -116.4657,171.8496 -116.736,281.8164 h 1.9999 c 0.2702,-109.4262 44.5751,-208.485 116.1417,-280.4108 z m -116.7365,283.8235 c 0.2654,105.6532 42.2128,206.9257 116.7345,281.8205 l 1.4164,-1.4164 c -74.1473,-74.5203 -115.8857,-175.2804 -116.151,-280.4041 z m 795.6201,57.7655 c -12.4717,83.7507 -51.3923,161.9058 -111.821,222.6386 l 1.4164,1.4164 c 60.6158,-60.9192 99.6938,-139.2851 112.3063,-223.2732 -0.7302,-0.047 -1.1788,-0.7095 -1.9017,-0.7818 z m -113.239,224.0555 c -74.5209,74.1459 -175.2807,115.8837 -280.4041,116.148 v 2.0004 c 105.6531,-0.2643 206.925,-42.2113 281.8205,-116.7319 z m -562.8122,5e-4 -1.4159,1.416 c 74.8964,74.5215 176.1695,116.4687 281.8241,116.7319 v -2.0004 c -105.1248,-0.2632 -205.8864,-42.0007 -280.4082,-116.1475 z"
       style="baseline-shift:baseline;display:inline;overflow:visible;vector-effect:none;fill:#ffffff;enable-background:accumulate;stop-color:#000000;stop-opacity:1"
       id="path1567" />
    <path
       d="m 1999.002,1499.0248 c -132.1779,0.2636 -258.8864,52.7491 -352.5371,146.0262 l 1.4138,1.4139 c 93.2761,-92.9026 219.4751,-145.1766 351.1233,-145.4402 z m 1.9999,0 v 1.9999 c 131.6468,0.2647 257.844,52.5386 351.1191,145.4402 l 1.4144,-1.4144 c -93.6497,-93.276 -220.3572,-145.761 -352.5335,-146.0257 z m -355.9509,147.4401 c -93.2763,93.6499 -145.7618,220.3572 -146.0262,352.534 h 1.9999 c 0.2644,-131.6471 52.5383,-257.8448 145.4402,-351.1202 z m 709.8983,0 -1.4139,1.4138 c 92.9017,93.2754 145.1753,219.4732 145.4397,351.1202 h 1.9999 c -0.2644,-132.1768 -52.7494,-258.8841 -146.0257,-352.534 z m -855.9245,354.5339 c 0.2244,112.381 38.3019,220.7367 107.0028,308.2566 0.2435,-0.2206 0.6603,-0.1594 0.9074,-0.3762 0.3663,-0.089 0.7294,-0.1821 1.0082,-0.418 -68.644,-87.2459 -106.6938,-195.3426 -106.9185,-307.4624 z m 999.9503,0 c -0.2639,131.6479 -52.5379,257.8464 -145.4402,351.1222 l 1.4144,1.4144 c 93.2768,-93.6504 145.7618,-220.359 146.0257,-352.5366 z m -146.8541,352.5361 c -93.2751,92.9016 -219.4723,145.1755 -351.1191,145.4402 v 1.9999 c 132.1765,-0.2647 258.8838,-52.7496 352.5335,-146.0257 z m -660.6764,38.4483 c -0.096,0.1128 -0.073,0.2961 -0.169,0.4082 -0.18,0.2095 -0.1336,0.5553 -0.3163,0.7623 -0.084,0.2598 -0.1277,0.5456 -0.309,0.7457 87.5364,68.7475 195.9301,106.8514 308.3517,107.0756 v -1.9999 c -112.1603,-0.2246 -220.2951,-38.3011 -307.5574,-106.9919 z"
       style="baseline-shift:baseline;display:inline;overflow:visible;vector-effect:none;fill:#ffffff;enable-background:accumulate;stop-color:#000000;stop-opacity:1"
       id="path1566" />
    <path
       d="m 1999.002,799.02461 c -317.8295,0.26444 -622.5854,126.49934 -847.5121,351.05149 l 1.4144,1.4143 C 1377.4565,927.31301 1681.7021,801.28944 1999.002,801.02501 Z m 1.9999,0 v 2.0004 c 317.2983,0.26552 621.5429,126.28857 846.0941,350.46489 l 1.4139,-1.4138 c -224.9258,-224.55117 -529.68,-350.78596 -847.508,-351.05149 z m -850.9258,352.46529 c -224.55142,224.926 -350.78623,529.6806 -351.05149,847.509 h 2.0004 c 0.26525,-317.2988 126.28873,-621.5431 350.46539,-846.0946 z m 1699.8481,0 -1.4143,1.4144 c 224.1767,224.5515 350.2001,528.7958 350.4654,846.0946 h 1.9999 c -0.2653,-317.8282 -126.4998,-622.5831 -351.051,-847.509 z M 799.02461,2000.9988 c 0.26471,317.8291 126.49958,622.5846 351.05149,847.5111 l 1.4138,-1.4139 C 927.31285,2622.5441 801.28971,2318.2982 801.02501,2000.9988 Z m 2399.95069,0 c -0.252,302.0942 -114.6777,592.2148 -319.0958,813.1333 0.4546,0.5739 0.4072,1.4261 0.8372,2.0195 205.148,-221.3699 320.0062,-512.2496 320.2585,-815.1528 z m -2046.071,847.5111 -1.4144,1.4143 c 224.9267,224.5519 529.6827,350.7865 847.5121,351.051 v -1.9999 c -317.2999,-0.2645 -621.5455,-126.2879 -846.0977,-350.4654 z m 1657.9412,34.4966 c -220.5004,202.4906 -509.2664,315.7172 -809.8436,315.9688 v 1.9999 c 301.3864,-0.2518 590.9098,-113.9124 811.8636,-317.1316 -0.5925,-0.4315 -1.4472,-0.3811 -2.02,-0.8371 z"
       style="baseline-shift:baseline;display:inline;overflow:visible;vector-effect:none;fill:#ffffff;enable-background:accumulate;stop-color:#000000;stop-opacity:1"
       id="path1565" />
    <path
       d="m 1939.725,1301.7598 c -163.4907,14.1101 -317.5944,85.1156 -434.682,201.8694 l 1.4139,1.4138 c 116.9034,-116.5691 270.8113,-187.3961 434.0681,-201.3376 -0.051,-0.7461 -0.776,-1.1921 -0.8,-1.9456 z m 120.6082,0 c -0.024,0.7535 -0.7488,1.1995 -0.8,1.9456 163.2351,13.9535 317.1202,84.7783 434.0097,201.3335 l 1.4144,-1.4144 c -117.0736,-116.7395 -271.1548,-187.7428 -434.6236,-201.8647 0,10e-5 -5e-4,-10e-5 -5e-4,0 z m -556.7061,203.2812 c -130.7822,131.1572 -204.3377,308.7347 -204.6025,493.9538 h 2.0004 c 0.2648,-184.6894 73.6084,-361.7573 204.016,-492.54 z m 992.7461,0 -1.4139,1.4138 c 130.4074,130.7827 203.7512,307.8507 204.016,492.54 h 1.9999 c -0.2648,-185.2191 -73.8198,-362.7966 -204.602,-493.9538 z m -1197.3486,495.9578 c 0.2654,185.2193 73.8212,362.7974 204.604,493.9543 l 1.4144,-1.4143 c -130.4093,-130.7792 -203.7537,-307.8488 -204.018,-492.54 z m 1399.9507,0 c -0.2654,184.6897 -73.6102,361.7575 -204.0185,492.54 l 1.4143,1.4143 c 130.7831,-131.157 204.3387,-308.7349 204.6041,-493.9543 z m -205.4345,493.9559 c -130.7825,130.4073 -307.8498,203.7514 -492.5389,204.0165 v 1.9999 c 185.2188,-0.2651 362.7963,-73.82 493.9533,-204.602 z m -987.0818,5e-4 -1.4139,1.4139 c 131.158,130.7829 308.7366,204.338 493.9569,204.602 v -1.9999 c -184.6904,-0.264 -361.7597,-73.6079 -492.543,-204.016 z"
       style="baseline-shift:baseline;display:inline;overflow:visible;vector-effect:none;fill:#ffffff;enable-background:accumulate;stop-color:#000000;stop-opacity:1"
       id="path1564" />
    <path
       d="M 0.70693359,-0.70693359 -0.70693359,0.70693359 1722.6964,1724.1103 c 0.4718,-0.489 0.9499,-0.9151 1.4407,-1.385 4e-4,-3e-4 7e-4,-7e-4 0,-10e-4 z M 1795.9514,1794.5375 c -0.4699,0.4909 -0.8955,0.9694 -1.3845,1.4412 -10e-5,2e-4 -3e-4,4e-4 -5e-4,6e-4 l 203.0186,203.0186 h 1.417 v -1.4108 z m 205.0505,206.4613 v 1.417 l 805.5519,805.5518 c 0.4925,-0.4688 1.1778,-0.6899 1.6887,-1.1389 l -805.8298,-805.8299 z m 878.4647,877.0534 c -0.4491,0.5111 -0.67,1.1967 -1.1389,1.6893 l 12239.0743,12239.0745 1.414,-1.414 z"
       style="baseline-shift:baseline;display:inline;overflow:visible;vector-effect:none;fill:#ffffff;enable-background:accumulate;stop-color:#000000;stop-opacity:1"
       id="path1563" />
    <path
       d="m 0,1998.9989 v 1.9999 h 1949.4247 c -0.032,-0.3395 -0.37,-0.5438 -0.37,-0.8914 0,-0.4323 0.4111,-0.689 0.4599,-1.1085 z m 1970.595,0 c 0.049,0.4194 0.4599,0.6762 0.4599,1.1085 0,0.3476 -0.3383,0.5519 -0.37,0.8914 h 26.9022 l 1.4149,-1.4149 v -0.585 z m 31.8202,0 -1.4133,1.4134 v 0.5865 h 338.153 c -0.01,-0.3734 -0.2134,-0.6823 -0.2134,-1.0573 0,-0.3343 0.1848,-0.6096 0.1901,-0.9426 z m 458.3359,0 c 0.01,0.333 0.1902,0.6083 0.1902,0.9426 0,0.375 -0.2067,0.6839 -0.2135,1.0573 h 1539.2725 v -1.9999 z"
       style="baseline-shift:baseline;display:inline;overflow:visible;vector-effect:none;fill:#ffffff;enable-background:accumulate;stop-color:#000000;stop-opacity:1"
       id="path1562" />
    <path
       d="m 1999.002,0 v 1239.2763 c 0.3629,-0.01 0.663,-0.2077 1.0273,-0.2077 0.345,0 0.629,0.1906 0.9726,0.1963 V 0 Z m 0,1360.8606 v 638.7233 l 1.9999,-1.9999 v -636.712 c -0.3436,0.01 -0.6276,0.1963 -0.9726,0.1963 -0.3643,0 -0.6644,-0.2013 -1.0273,-0.2077 z m 1.9999,639.5517 -1.9999,1.9998 v 116.7051 c 0.4391,-0.054 0.709,-0.4822 1.1622,-0.4822 0.3267,0 0.5181,0.3197 0.8377,0.3478 z m -1.9999,139.7403 v 1859.8472 h 1.9999 V 2140.2869 c -0.3196,0.028 -0.511,0.3478 -0.8377,0.3478 -0.4532,0 -0.7231,-0.4286 -1.1622,-0.4821 z"
       style="baseline-shift:baseline;display:inline;overflow:visible;vector-effect:none;fill:#ffffff;enable-background:accumulate;stop-color:#000000;stop-opacity:1"
       id="path1561" />
    <path
       d="M 3999.2928,-0.70693359 2063.4105,1935.1754 c 2e-4,2e-4 3e-4,4e-4 5e-4,5e-4 0.5213,0.4373 0.9677,0.9016 1.4004,1.4268 L 4000.7072,0.70693359 Z M 2048.1246,1950.4613 1688.7775,2309.8084 c 0.481,0.4664 0.9402,0.9407 1.4056,1.4226 l 359.3688,-359.3687 c -0.5252,-0.4328 -0.9896,-0.8791 -1.4268,-1.4005 z M 1602.6464,2395.9395 592.63049,3405.9554 c 3.7e-4,3e-4 7.1e-4,7e-4 0.001,0 0.001,0 0.002,0 0.003,0 0.51852,0.4359 0.96152,0.8996 1.39216,1.4227 6.3e-4,7e-4 0.001,0 0.002,0 l 5.1e-4,5e-4 L 1604.069,2397.3451 c -0.4819,-0.4654 -0.9562,-0.9246 -1.4226,-1.4056 z M 577.34202,3421.2439 -0.70693359,3999.2928 0.70693359,4000.7072 578.77139,3422.6428 c -3.8e-4,-4e-4 -6.8e-4,-8e-4 -0.001,0 -0.001,-0 -0.002,-0 -0.003,-0 -0.52283,-0.4305 -0.9864,-0.8734 -1.42214,-1.3917 -6.4e-4,-7e-4 -0.001,-0 -0.002,-0 -3.2e-4,-4e-4 -7.4e-4,-6e-4 -0.001,0 z"
       style="baseline-shift:baseline;display:inline;overflow:visible;vector-effect:none;fill:#ffffff;enable-background:accumulate;stop-color:#000000;stop-opacity:1"
       id="path1560" />
    <path
       d="m 1960.0545,1989.1075 c -6.0633,0 -10.9998,4.9366 -10.9998,10.9999 0,6.0633 4.9365,10.9998 10.9998,10.9998 6.0633,0 11.0004,-4.9365 11.0004,-10.9998 0,-6.0633 -4.9371,-10.9999 -11.0004,-10.9999 z m 0,1.9999 c 4.9824,0 9,4.0176 9,9 0,4.9824 -4.0176,8.9999 -9,8.9999 -4.9824,0 -8.9999,-4.0175 -8.9999,-8.9999 0,-4.9824 4.0175,-9 8.9999,-9 z"
       style="baseline-shift:baseline;display:inline;overflow:visible;vector-effect:none;fill:#ffffff;enable-background:accumulate;stop-color:#000000;stop-opacity:1"
       id="path1559" />
    <path
       d="m 2056.4414,1932.4924 c -6.0633,0 -10.9998,4.9365 -10.9998,10.9998 0,6.0633 4.9365,10.9999 10.9998,10.9999 6.0633,0 10.9998,-4.9366 10.9998,-10.9999 0,-6.0633 -4.9365,-10.9998 -10.9998,-10.9998 z m 0,1.9999 c 4.9824,0 9,4.0175 9,8.9999 0,4.9824 -4.0176,9 -9,9 -4.9824,0 -9,-4.0176 -9,-9 0,-4.9824 4.0176,-8.9999 9,-8.9999 z"
       style="baseline-shift:baseline;display:inline;overflow:visible;vector-effect:none;fill:#ffffff;enable-background:accumulate;stop-color:#000000;stop-opacity:1"
       id="path1558" />
    <path
       d="m 1759.2657,1708.4104 c -28.1547,0 -50.9999,22.8453 -50.9999,51 0,28.1546 22.8452,51 50.9999,51 28.1547,0 51,-22.8454 51,-51 0,-28.1547 -22.8453,-51 -51,-51 z m 0,1.9999 c 27.0738,0 49.0002,21.9263 49.0002,49.0001 0,27.0738 -21.9264,48.9996 -49.0002,48.9996 -27.0738,0 -49.0001,-21.9258 -49.0001,-48.9996 0,-27.0738 21.9263,-49.0001 49.0001,-49.0001 z"
       style="baseline-shift:baseline;display:inline;overflow:visible;vector-effect:none;fill:#ffffff;enable-background:accumulate;stop-color:#000000;stop-opacity:1"
       id="path1557" />
    <path
       d="m 2399.9414,1938.9416 c -33.6775,0 -60.9999,27.3224 -60.9999,60.9999 0,33.6775 27.3224,60.9999 60.9999,60.9999 33.6775,0 60.9999,-27.3224 60.9999,-60.9999 0,-33.6775 -27.3224,-60.9999 -60.9999,-60.9999 z m 0,1.9999 c 32.5967,0 59,26.4034 59,59 0,32.5967 -26.4033,59 -59,59 -32.5966,0 -59.0001,-26.4033 -59.0001,-59 0,-32.5966 26.4035,-59 59.0001,-59 z"
       style="baseline-shift:baseline;display:inline;overflow:visible;vector-effect:none;fill:#ffffff;enable-background:accumulate;stop-color:#000000;stop-opacity:1"
       id="path1556" />
    <path
       d="m 2000.1642,2118.635 c -6.0633,0 -11.0003,4.9366 -11.0003,10.9999 0,6.0633 4.937,10.9998 11.0003,10.9998 6.0633,0 10.9999,-4.9365 10.9999,-10.9998 0,-6.0633 -4.9366,-10.9999 -10.9999,-10.9999 z m 0,1.9999 c 4.9824,0 9,4.0176 9,9 0,4.9824 -4.0176,8.9999 -9,8.9999 -4.9824,0 -9,-4.0175 -9,-8.9999 0,-4.9824 4.0176,-9 9,-9 z"
       style="baseline-shift:baseline;display:inline;overflow:visible;vector-effect:none;fill:#ffffff;enable-background:accumulate;stop-color:#000000;stop-opacity:1"
       id="path1555" />
    <path
       d="m 1646.375,2292.5371 c -33.6775,0 -60.9999,27.3224 -60.9999,60.9999 0,33.6775 27.3224,60.9999 60.9999,60.9999 33.6775,0 60.9999,-27.3224 60.9999,-60.9999 0,-33.6775 -27.3224,-60.9999 -60.9999,-60.9999 z m 0,1.9998 c 32.5966,0 59,26.4035 59,59.0001 0,32.5967 -26.4034,59 -59,59 -32.5966,0 -59.0001,-26.4033 -59.0001,-59 0,-32.5966 26.4035,-59.0001 59.0001,-59.0001 z"
       style="baseline-shift:baseline;display:inline;overflow:visible;vector-effect:none;fill:#ffffff;enable-background:accumulate;stop-color:#000000;stop-opacity:1"
       id="path1554" />
    <path
       d="m 2000.0293,1239.0686 c -33.6775,0 -60.9999,27.3222 -60.9999,60.9998 0,33.6775 27.3224,60.9999 60.9999,60.9999 33.6775,0 60.9999,-27.3224 60.9999,-60.9999 0,-33.6776 -27.3224,-60.9998 -60.9999,-60.9998 z m 0,1.9998 c 32.5966,0 59.0001,26.4033 59.0001,59 0,32.5966 -26.4035,59.0001 -59.0001,59.0001 -32.5966,0 -59,-26.4035 -59,-59.0001 0,-32.5967 26.4034,-59 59,-59 z"
       style="baseline-shift:baseline;display:inline;overflow:visible;vector-effect:none;fill:none;enable-background:accumulate;stop-color:#000000;stop-opacity:1"
       id="path1553" />
    <path
       d="m 2841.5604,2793.7344 c -28.1546,0 -51,22.8453 -51,51 0,28.1547 22.8454,51 51,51 28.1547,0 51,-22.8453 51,-51 0,-28.1547 -22.8453,-51 -51,-51 z m 0,1.9999 c 27.0738,0 49.0001,21.9263 49.0001,49.0001 0,27.0738 -21.9263,49.0001 -49.0001,49.0001 -27.0738,0 -49.0001,-21.9263 -49.0001,-49.0001 0,-27.0738 21.9263,-49.0001 49.0001,-49.0001 z"
       style="baseline-shift:baseline;display:inline;overflow:visible;vector-effect:none;fill:#ffffff;enable-background:accumulate;stop-color:#000000;stop-opacity:1"
       id="path1552" />
    <path
       d="m 585.65417,3403.2677 c -6.06329,0 -10.99984,4.9366 -10.99984,10.9999 0,6.0633 4.93655,10.9998 10.99984,10.9998 6.06328,0 11.00037,-4.9365 11.00037,-10.9998 0,-6.0633 -4.93709,-10.9999 -11.00037,-10.9999 z m 0,1.9999 c 4.9824,0 8.99997,4.0176 8.99997,9 0,4.9824 -4.01757,8.9999 -8.99997,8.9999 -4.98241,0 -8.99996,-4.0175 -8.99996,-8.9999 0,-4.9824 4.01755,-9 8.99996,-9 z"
       style="baseline-shift:baseline;display:inline;overflow:visible;vector-effect:none;fill:#ffffff;enable-background:accumulate;stop-color:#000000;stop-opacity:1"
       id="path1551" />
    <path
       d="m 1646.375,2302.537 c -28.1547,0 -51,22.8453 -51,51 0,13.1132 4.9595,25.0716 13.0994,34.1095 0.4048,-0.6028 0.774,-1.0381 1.3638,-1.4604 -7.7483,-8.6658 -12.4634,-20.1022 -12.4634,-32.6491 0,-27.0738 21.9264,-49.0001 49.0002,-49.0001 27.0738,0 49.0001,21.9263 49.0001,49.0001 0,27.0738 -21.9263,49.0001 -49.0001,49.0001 -10.5612,0 -20.3305,-3.3478 -28.3291,-9.0248 -3e-4,7e-4 -6e-4,0 -10e-4,0 -0.3439,0.6165 -0.5051,1.2415 -1.0351,1.7012 8.3056,5.8643 18.4307,9.3214 29.3652,9.3214 28.1547,0 50.9999,-22.8453 50.9999,-51 0,-28.1547 -22.8452,-51 -50.9999,-51 z"
       style="baseline-shift:baseline;display:inline;overflow:visible;vector-effect:none;fill:#ffffff;enable-background:accumulate;stop-color:#000000;stop-opacity:1"
       id="path1550" />
    <path
       d="m 1646.375,2317.658 c -6.3243,0 -12.2644,1.645 -17.4259,4.5212 2e-4,10e-5 4e-4,4e-4 6e-4,5e-4 0.484,0.4012 0.6855,0.895 1.0247,1.4268 2e-4,3e-4 3e-4,7e-4 5e-4,0 4.8662,-2.6704 10.4537,-4.1915 16.4001,-4.1915 18.855,0 34.1209,15.266 34.1209,34.121 0,18.855 -15.2659,34.1214 -34.1209,34.1214 -18.855,0 -34.121,-15.2664 -34.121,-34.1214 0,-8.7469 3.2893,-16.7179 8.6941,-22.7542 -10e-5,-10e-5 10e-5,-4e-4 0,-5e-4 -0.4464,-0.4623 -0.4569,-1.1852 -0.7369,-1.771 -5e-4,-0 -6e-4,-0 -0,-0 -6.0195,6.418 -9.7141,15.0422 -9.7141,24.5288 0,19.805 16.074,35.8789 35.879,35.8789 19.805,0 35.8789,-16.0739 35.8789,-35.8789 0,-19.805 -16.0739,-35.879 -35.8789,-35.879 z"
       style="baseline-shift:baseline;display:inline;overflow:visible;vector-effect:none;fill:#ffffff;enable-background:accumulate;stop-color:#000000;stop-opacity:1"
       id="path1549" />
    <path
       d="m 1646.375,2332.8163 c -11.4349,0 -20.7207,9.2858 -20.7207,20.7207 0,11.4349 9.2858,20.7207 20.7207,20.7207 4.7388,0 9.1055,-1.5983 12.5982,-4.2799 -2e-4,-1e-4 -4e-4,-4e-4 -6e-4,-5e-4 -0.451,-0.3 -0.9101,-0.4346 -1.265,-0.8418 -3.1804,2.3134 -7.0943,3.6809 -11.3326,3.6809 -10.6565,0 -19.2795,-8.6229 -19.2795,-19.2794 0,-10.6565 8.623,-19.279 19.2795,-19.279 10.6565,0 19.2794,8.6225 19.2794,19.279 0,2.36 -0.4246,4.6196 -1.1989,6.7086 0.4395,0.2087 0.9535,0.2474 1.3271,0.5519 0.8471,-2.2603 1.3131,-4.7062 1.3131,-7.2605 0,-11.4349 -9.2858,-20.7207 -20.7207,-20.7207 z"
       style="baseline-shift:baseline;display:inline;overflow:visible;vector-effect:none;fill:#ffffff;enable-background:accumulate;stop-color:#000000;stop-opacity:1"
       id="path1548" />
    <path
       d="m 1759.2657,1718.3478 c -21.6431,0 -39.3807,16.7772 -40.9385,38.0251 0.017,-0 0.031,-0.015 0.049,-0.02 0.4778,-0.1533 0.828,-0.5637 1.3565,-0.5637 0.1834,0 0.3219,0.1054 0.4687,0.1948 0.1056,0.01 0.1731,0.1002 0.277,0.1152 1.6801,-19.9631 18.3876,-35.6242 38.7878,-35.6242 21.5167,0 38.9372,17.4188 38.9372,38.9356 0,21.5167 -17.4205,38.9372 -38.9372,38.9372 -18.8392,0 -34.5378,-13.3551 -38.1532,-31.1211 -0.04,0.011 -0.075,0.033 -0.1137,0.047 -0.4359,0.1643 -0.7725,0.5266 -1.2666,0.5266 -0.1783,0 -0.313,-0.1026 -0.4557,-0.1896 -0.1026,-0.01 -0.1682,-0.098 -0.2693,-0.1117 -9e-4,-10e-5 -0,-9e-4 -0,-10e-4 3.7604,18.7969 20.3639,32.9763 40.2611,32.9763 22.6661,0 41.0627,-18.3982 41.0627,-41.0642 0,-22.6661 -18.3966,-41.0626 -41.0627,-41.0626 z"
       style="baseline-shift:baseline;display:inline;overflow:visible;vector-effect:none;fill:#ffffff;enable-background:accumulate;stop-color:#000000;stop-opacity:1"
       id="path1547" />
    <path
       d="m 1759.2657,1733.6017 c -14.2438,0 -25.8087,11.5648 -25.8087,25.8087 0,14.2438 11.5649,25.8083 25.8087,25.8083 14.2439,0 25.8083,-11.5645 25.8083,-25.8083 0,-1.856 -0.2006,-3.6651 -0.5736,-5.4105 -0.4877,0.2634 -0.9605,0.51 -1.5162,0.6305 -2e-4,0 -4e-4,-10e-5 -5e-4,0 0.3092,1.5452 0.4733,3.1432 0.4733,4.78 0,13.3703 -10.8209,24.1913 -24.1913,24.1913 -13.3704,0 -24.1912,-10.821 -24.1912,-24.1913 0,-13.3704 10.8208,-24.1919 24.1912,-24.1918 7.762,0 14.6595,3.6511 19.0847,9.3266 0.4432,-0.3411 1.0115,-0.4324 1.5394,-0.6403 2e-4,0 4e-4,10e-5 5e-4,0 -4.7114,-6.2546 -12.1984,-10.3032 -20.6246,-10.3032 z"
       style="baseline-shift:baseline;display:inline;overflow:visible;vector-effect:none;fill:#ffffff;enable-background:accumulate;stop-color:#000000;stop-opacity:1"
       id="path1546" />
    <path
       d="m 1646.375,2342.5371 c -6.0633,0 -10.9999,4.9366 -10.9999,10.9999 0,6.0633 4.9366,11.0003 10.9999,11.0003 6.0633,0 10.9998,-4.937 10.9998,-11.0003 0,-6.0633 -4.9365,-10.9999 -10.9998,-10.9999 z m 0,1.9999 c 4.9824,0 8.9999,4.0176 8.9999,9 0,4.9824 -4.0175,8.9999 -8.9999,8.9999 -4.9824,0 -9,-4.0175 -9,-8.9999 0,-4.9824 4.0176,-9 9,-9 z"
       style="baseline-shift:baseline;display:inline;overflow:visible;vector-effect:none;fill:#ffffff;enable-background:accumulate;stop-color:#000000;stop-opacity:1"
       id="path1545" />
    <path
       d="m 2399.9414,1948.9415 c -28.1547,0 -51,22.8453 -51,51 0,19.2719 10.7065,36.0519 26.4904,44.7244 0,-4e-4 4e-4,-7e-4 5e-4,-10e-4 0.167,-0.6708 0.3967,-1.2892 0.7689,-1.8506 4e-4,-5e-4 7e-4,-10e-4 0,-0 -15.0652,-8.356 -25.2609,-24.4138 -25.2609,-42.8713 0,-27.0738 21.9263,-49.0001 49.0001,-49.0001 27.0738,0 49.0001,21.9263 49.0001,49.0001 0,27.0738 -21.9263,49.0001 -49.0001,49.0001 -4.6815,0 -9.2032,-0.6695 -13.4902,-1.8939 -0.1459,0.6806 -0.4148,1.2808 -0.771,1.8557 4.5278,1.3178 9.3095,2.0381 14.2612,2.0381 28.1547,0 51,-22.8453 51,-51 0,-28.1547 -22.8453,-51 -51,-51 z"
       style="baseline-shift:baseline;display:inline;overflow:visible;vector-effect:none;fill:#ffffff;enable-background:accumulate;stop-color:#000000;stop-opacity:1"
       id="path1544" />
    <path
       d="m 2399.9414,1964.0625 c -5.8586,0 -11.3853,1.4158 -16.2714,3.9094 0.4755,0.406 0.6419,0.9319 0.9726,1.4655 3e-4,6e-4 6e-4,10e-4 10e-4,0 4.6014,-2.3108 9.7945,-3.6189 15.2978,-3.6189 18.855,0 34.1209,15.2664 34.1209,34.1214 0,18.855 -15.2659,34.1209 -34.1209,34.1209 -18.855,0 -34.1209,-15.2659 -34.1209,-34.1209 0,-9.235 3.6686,-17.6032 9.6211,-23.7443 -0.4132,-0.4842 -0.485,-1.1558 -0.7292,-1.7534 -6.5732,6.5045 -10.65,15.5269 -10.65,25.4977 0,19.805 16.074,35.8789 35.879,35.8789 19.805,0 35.8789,-16.0739 35.8789,-35.8789 0,-19.805 -16.0739,-35.879 -35.8789,-35.879 z"
       style="baseline-shift:baseline;display:inline;overflow:visible;vector-effect:none;fill:#ffffff;enable-background:accumulate;stop-color:#000000;stop-opacity:1"
       id="path1543" />
    <path
       d="m 2399.9414,1979.2208 c -11.4349,0 -20.7207,9.2858 -20.7207,20.7207 0,11.4349 9.2858,20.7207 20.7207,20.7207 8.6354,0 16.0423,-5.2975 19.1528,-12.8152 -6e-4,-10e-5 -0,-5e-4 -0,-6e-4 -0.4971,-0.069 -0.873,-0.3659 -1.324,-0.5503 -4e-4,-2e-4 -7e-4,-4e-4 -0,-5e-4 -2.8881,7.002 -9.7754,11.9253 -17.8263,11.9253 -10.6565,0 -19.2795,-8.6229 -19.2795,-19.2794 0,-10.6565 8.623,-19.2795 19.2795,-19.2795 9.4848,0 17.353,6.8328 18.9699,15.8487 0.1144,-0.02 0.1914,-0.1148 0.308,-0.1282 0.1878,-0.1109 0.3624,-0.2475 0.5953,-0.2475 0.1223,0 0.2159,0.069 0.3131,0.1302 0.084,0.01 0.1353,0.082 0.2181,0.091 -1.7016,-9.7277 -10.1931,-17.1349 -20.4044,-17.1349 z"
       style="baseline-shift:baseline;display:inline;overflow:visible;vector-effect:none;fill:#ffffff;enable-background:accumulate;stop-color:#000000;stop-opacity:1"
       id="path1542" />
    <path
       d="m 2399.9414,1988.9416 c -6.0633,0 -10.9999,4.9366 -10.9999,10.9999 0,6.0633 4.9366,10.9998 10.9999,10.9998 6.0633,0 10.9998,-4.9365 10.9998,-10.9998 0,-6.0633 -4.9365,-10.9999 -10.9998,-10.9999 z m 0,1.9999 c 4.9824,0 8.9999,4.0176 8.9999,9 0,4.9824 -4.0175,9 -8.9999,9 -4.9824,0 -9,-4.0176 -9,-9 0,-4.9824 4.0176,-9 9,-9 z"
       style="baseline-shift:baseline;display:inline;overflow:visible;vector-effect:none;fill:#ffffff;enable-background:accumulate;stop-color:#000000;stop-opacity:1"
       id="path1541" />
    <path
       d="m 2000.0293,1249.0685 c -27.0708,0 -49.2215,21.1231 -50.8878,47.7759 0.1219,-0.025 0.2068,-0.1207 0.3312,-0.138 0.2294,-0.1319 0.4398,-0.3003 0.7225,-0.3003 0.3698,0 0.5988,0.3273 0.9493,0.3948 0,4e-4 0,0 0,0 1.6807,-25.5479 22.905,-45.7347 48.8802,-45.7347 27.0738,0 49.0002,21.9263 49.0002,49.0001 0,27.0738 -21.9264,49.0002 -49.0002,49.0002 -24.4367,0 -44.674,-17.8649 -48.3856,-41.2528 -0.011,0 -0.019,0.01 -0.03,0.012 -0.5024,0.1559 -0.8661,0.5901 -1.419,0.5901 -0.1991,0 -0.3169,-0.1932 -0.5111,-0.2124 3.9002,24.2893 24.9608,42.863 50.3452,42.863 28.1547,0 51,-22.8454 51,-51 0,-28.1547 -22.8453,-50.9999 -51,-50.9999 z"
       style="baseline-shift:baseline;display:inline;overflow:visible;vector-effect:none;fill:#ffffff;enable-background:accumulate;stop-color:#000000;stop-opacity:1"
       id="path1540" />
    <path
       d="m 2000.0293,1264.1895 c -19.805,0 -35.8789,16.0739 -35.8789,35.8789 0,19.8049 16.0739,35.879 35.8789,35.879 19.805,0 35.879,-16.0741 35.879,-35.879 0,-7.1067 -2.0781,-13.7271 -5.6472,-19.3026 -2e-4,3e-4 -3e-4,7e-4 -5e-4,0 -0.3609,0.564 -0.6123,1.0521 -1.1348,1.4676 3.1855,5.1888 5.0245,11.2946 5.0245,17.834 0,18.8549 -15.266,34.121 -34.121,34.121 -18.855,0 -34.1209,-15.2661 -34.1209,-34.121 0,-18.855 15.2659,-34.1209 34.1209,-34.1209 8.0814,0 15.4981,2.8105 21.3414,7.4998 3e-4,-2e-4 7e-4,-2e-4 10e-4,-5e-4 0.4753,-0.4586 1.2154,-0.4747 1.8206,-0.757 0,-7e-4 0,-0 0,-0 -6.2529,-5.297 -14.3365,-8.4987 -23.1671,-8.4987 z"
       style="baseline-shift:baseline;display:inline;overflow:visible;vector-effect:none;fill:#ffffff;enable-background:accumulate;stop-color:#000000;stop-opacity:1"
       id="path1539" />
    <path
       d="m 2000.0293,1279.3477 c -11.4349,0 -20.7207,9.2858 -20.7207,20.7207 0,8.5852 5.2348,15.9586 12.683,19.1007 0.026,-0.5103 0.4044,-0.8565 0.5514,-1.326 -6.9324,-2.9196 -11.7931,-9.774 -11.7931,-17.7747 0,-10.6565 8.6229,-19.2794 19.2794,-19.2794 10.6565,0 19.2795,8.6229 19.2795,19.2794 0,9.3982 -6.708,17.2111 -15.6016,18.926 0.01,0.071 0.074,0.115 0.078,0.1871 0.05,0.079 0.1054,0.155 0.1054,0.2542 0,0.2874 -0.1712,0.5009 -0.3049,0.7344 -0.018,0.1247 -0.1132,0.21 -0.1385,0.3322 0,2e-4 10e-5,4e-4 0,6e-4 9.8105,-1.6325 17.3028,-10.1644 17.3028,-20.4345 0,-11.4349 -9.2858,-20.7207 -20.7207,-20.7207 z"
       style="baseline-shift:baseline;display:inline;overflow:visible;vector-effect:none;fill:#ffffff;enable-background:accumulate;stop-color:#000000;stop-opacity:1"
       id="path1538" />
    <path
       d="m 2000.0293,1289.0686 c -6.0633,0 -10.9998,4.9365 -10.9998,10.9998 0,6.0632 4.9365,10.9999 10.9998,10.9999 6.0633,0 10.9999,-4.9367 10.9999,-10.9999 0,-6.0633 -4.9366,-10.9998 -10.9999,-10.9998 z m 0,1.9999 c 4.9824,0 9,4.0175 9,8.9999 0,4.9824 -4.0176,9 -9,9 -4.9824,0 -8.9999,-4.0176 -8.9999,-9 0,-4.9824 4.0175,-8.9999 8.9999,-8.9999 z"
       style="baseline-shift:baseline;display:inline;overflow:visible;vector-effect:none;fill:#ffffff;enable-background:accumulate;stop-color:#000000;stop-opacity:1"
       id="path1537" />
    <path
       d="m 1759.2657,1748.4101 c -6.0633,0 -11.0003,4.937 -11.0003,11.0003 0,6.0632 4.937,10.9999 11.0003,10.9999 6.0633,0 10.9999,-4.9367 10.9999,-10.9999 0,-6.0633 -4.9366,-11.0003 -10.9999,-11.0003 z m 0,1.9999 c 4.9824,0 9,4.0179 9,9.0004 0,4.9824 -4.0176,9 -9,9 -4.9824,0 -8.9999,-4.0176 -8.9999,-9 0,-4.9825 4.0175,-9.0004 8.9999,-9.0004 z"
       style="baseline-shift:baseline;display:inline;overflow:visible;vector-effect:none;fill:#ffffff;enable-background:accumulate;stop-color:#000000;stop-opacity:1"
       id="path1536" />
    <path
       d="m 2841.5604,2803.6718 c -22.666,0 -41.0642,18.3965 -41.0642,41.0626 0,8.5442 2.6166,16.4802 7.0885,23.0544 2e-4,-2e-4 4e-4,-3e-4 5e-4,-5e-4 0.488,-0.5637 1.156,-0.7365 1.8195,-1.0883 -4.2768,-6.2517 -6.7815,-13.8133 -6.7815,-21.9656 0,-21.5167 17.4205,-38.9377 38.9372,-38.9377 21.5168,0 38.9356,17.421 38.9356,38.9377 0,21.5167 -17.4188,38.9376 -38.9356,38.9376 -9.4489,0 -18.1064,-3.3612 -24.8471,-8.9519 -0.42,0.6433 -0.8097,1.1081 -1.4371,1.5498 7.1241,5.945 16.2875,9.5271 26.2842,9.5271 22.6661,0 41.0626,-18.3966 41.0626,-41.0626 0,-22.6661 -18.3965,-41.0626 -41.0626,-41.0626 z"
       style="baseline-shift:baseline;display:inline;overflow:visible;vector-effect:none;fill:#ffffff;enable-background:accumulate;stop-color:#000000;stop-opacity:1"
       id="path1535" />
    <path
       d="m 2841.5604,2818.9256 c -14.2438,0 -25.8082,11.5649 -25.8082,25.8088 0,14.2438 11.5644,25.8087 25.8082,25.8087 14.2439,0 25.8088,-11.5649 25.8088,-25.8087 0,-6.7949 -2.6361,-12.9761 -6.935,-17.5871 -0.1427,0.2489 -0.151,0.5609 -0.3266,0.786 -0.01,0.019 -0.016,0.038 -0.024,0.057 -0.1786,0.2241 -0.2135,0.499 -0.4217,0.6955 3.7874,4.2694 6.0901,9.8865 6.0901,16.0487 0,13.3704 -10.8214,24.1913 -24.1918,24.1913 -13.3703,0 -24.1913,-10.8209 -24.1913,-24.1913 0,-13.3704 10.821,-24.1913 24.1913,-24.1913 3.1463,0 6.1482,0.6054 8.9044,1.696 0.2153,-0.5032 0.2808,-1.0667 0.6185,-1.4888 -2.948,-1.173 -6.159,-1.8247 -9.5229,-1.8247 z"
       style="baseline-shift:baseline;display:inline;overflow:visible;vector-effect:none;fill:#ffffff;enable-background:accumulate;stop-color:#000000;stop-opacity:1"
       id="path1534" />
    <path
       d="m 2841.5604,2833.7345 c -6.0632,0 -10.9998,4.9366 -10.9998,10.9999 0,6.0633 4.9366,10.9998 10.9998,10.9998 6.0633,0 10.9998,-4.9365 10.9998,-10.9998 0,-6.0633 -4.9365,-10.9999 -10.9998,-10.9999 z m 0,1.9999 c 4.9825,0 9,4.0176 9,9 0,4.9824 -4.0175,8.9999 -9,8.9999 -4.9824,0 -9,-4.0175 -9,-8.9999 0,-4.9824 4.0176,-9 9,-9 z"
       style="baseline-shift:baseline;display:inline;overflow:visible;vector-effect:none;fill:#ffffff;enable-background:accumulate;stop-color:#000000;stop-opacity:1"
       id="path1533" />
    <path
       d="m 1625.2305,2320.633 c -3.3049,0 -6.0058,2.701 -6.0058,6.0059 0,3.3048 2.7009,6.0037 6.0058,6.0037 3.3048,0 6.0038,-2.6989 6.0038,-6.0037 0,-3.3049 -2.699,-6.0059 -6.0038,-6.0059 z m 0,1.9999 c 2.2239,0 4.0039,1.782 4.0039,4.006 0,2.2239 -1.78,4.0039 -4.0039,4.0039 -2.224,0 -4.0059,-1.78 -4.0059,-4.0039 0,-2.224 1.7819,-4.006 4.0059,-4.006 z"
       style="baseline-shift:baseline;display:inline;overflow:visible;vector-effect:none;fill:#ffffff;enable-background:accumulate;stop-color:#000000;stop-opacity:1"
       id="path1532" />
    <path
       d="m 1662.1073,2359.2694 c -3.3048,0 -6.0037,2.701 -6.0037,6.0059 0,3.3048 2.6989,6.0058 6.0037,6.0058 3.3049,0 6.0059,-2.701 6.0059,-6.0058 0,-3.3049 -2.701,-6.0059 -6.0059,-6.0059 z m 0,1.9999 c 2.224,0 4.006,1.782 4.006,4.006 0,2.224 -1.782,4.0059 -4.006,4.0059 -2.2239,0 -4.0039,-1.7819 -4.0039,-4.0059 0,-2.224 1.78,-4.006 4.0039,-4.006 z"
       style="baseline-shift:baseline;display:inline;overflow:visible;vector-effect:none;fill:#ffffff;enable-background:accumulate;stop-color:#000000;stop-opacity:1"
       id="path1531" />
    <path
       d="m 1613.1641,2384.8028 c -3.3049,0 -6.0038,2.7009 -6.0038,6.0058 0,3.3048 2.6989,6.0058 6.0038,6.0058 3.3048,0 6.0058,-2.701 6.0058,-6.0058 0,-3.3049 -2.701,-6.0058 -6.0058,-6.0058 z m 0,1.9998 c 2.2239,0 4.0059,1.782 4.0059,4.006 0,2.224 -1.782,4.0059 -4.0059,4.0059 -2.224,0 -4.0039,-1.7819 -4.0039,-4.0059 0,-2.224 1.7799,-4.006 4.0039,-4.006 z"
       style="baseline-shift:baseline;display:inline;overflow:visible;vector-effect:none;fill:#ffffff;enable-background:accumulate;stop-color:#000000;stop-opacity:1"
       id="path1530" />
    <path
       d="m 2811.9943,2865.623 c -3.3048,0 -6.0059,2.7011 -6.0059,6.0059 0,3.3049 2.7011,6.0058 6.0059,6.0058 3.3048,-1e-4 6.0038,-2.701 6.0037,-6.0058 10e-5,-3.3048 -2.6989,-6.0058 -6.0037,-6.0059 z m 0,1.9999 c 2.224,1e-4 4.0038,1.7821 4.0038,4.006 0,2.2239 -1.7798,4.0058 -4.0038,4.0059 -2.2239,0 -4.006,-1.7819 -4.006,-4.0059 0,-2.224 1.7821,-4.006 4.006,-4.006 z"
       style="baseline-shift:baseline;display:inline;overflow:visible;vector-effect:none;fill:#ffffff;enable-background:accumulate;stop-color:#000000;stop-opacity:1"
       id="path1529" />
    <path
       d="m 2855.5802,2818.3711 c -3.3049,0 -6.0037,2.701 -6.0037,6.0059 0,3.3048 2.6988,6.0058 6.0037,6.0058 3.3048,0 6.0059,-2.701 6.0059,-6.0058 0,-3.3049 -2.7011,-6.0059 -6.0059,-6.0059 z m 0,1.9999 c 2.2239,0 4.0055,1.782 4.0055,4.006 0,2.2239 -1.7816,4.0059 -4.0055,4.0059 -2.224,0 -4.0039,-1.782 -4.0039,-4.0059 0,-2.224 1.7799,-4.006 4.0039,-4.006 z"
       style="baseline-shift:baseline;display:inline;overflow:visible;vector-effect:none;fill:#ffffff;enable-background:accumulate;stop-color:#000000;stop-opacity:1"
       id="path1528" />
    <path
       d="m 2379.8671,1966.3906 c -3.3049,0 -6.0058,2.7009 -6.0058,6.0058 0,3.3048 2.7009,6.0058 6.0058,6.0058 3.3048,0 6.006,-2.701 6.0059,-6.0058 10e-5,-3.3049 -2.7011,-6.0058 -6.0059,-6.0058 z m 0,1.9998 c 2.224,0 4.006,1.782 4.006,4.006 0,2.224 -1.782,4.006 -4.006,4.006 -2.224,0 -4.0059,-1.782 -4.0059,-4.006 0,-2.224 1.7819,-4.006 4.0059,-4.006 z"
       style="baseline-shift:baseline;display:inline;overflow:visible;vector-effect:none;fill:#ffffff;enable-background:accumulate;stop-color:#000000;stop-opacity:1"
       id="path1527" />
    <path
       d="m 2419.8146,1996.135 c -3.3049,0 -6.0059,2.701 -6.0059,6.0058 0,3.3049 2.701,6.0059 6.0059,6.0059 3.3048,0 6.0058,-2.701 6.0058,-6.0059 0,-3.3048 -2.701,-6.0058 -6.0058,-6.0058 z m 0,1.9999 c 2.2239,0 4.0059,1.782 4.0059,4.0059 0,2.224 -1.782,4.0055 -4.0059,4.0055 -2.224,0 -4.006,-1.7815 -4.006,-4.0055 0,-2.2239 1.782,-4.0059 4.006,-4.0059 z"
       style="baseline-shift:baseline;display:inline;overflow:visible;vector-effect:none;fill:#ffffff;enable-background:accumulate;stop-color:#000000;stop-opacity:1"
       id="path1526" />
    <path
       d="m 2380.9064,2039.9375 c -3.3049,0 -6.0059,2.7009 -6.0059,6.0058 0,3.3048 2.701,6.0059 6.0059,6.0059 3.3048,0 6.0037,-2.7011 6.0037,-6.0059 0,-3.3049 -2.6989,-6.0058 -6.0037,-6.0058 z m 0,1.9999 c 2.2239,0 4.0038,1.7819 4.0038,4.0059 0,2.2239 -1.7799,4.006 -4.0038,4.006 -2.224,0 -4.006,-1.7821 -4.006,-4.006 0,-2.224 1.782,-4.0059 4.006,-4.0059 z"
       style="baseline-shift:baseline;display:inline;overflow:visible;vector-effect:none;fill:#ffffff;enable-background:accumulate;stop-color:#000000;stop-opacity:1"
       id="path1525" />
    <path
       d="m 1781.869,1743.0822 c -3.3048,0 -6.0058,2.701 -6.0058,6.0059 0,3.3048 2.701,6.0058 6.0058,6.0058 3.3049,0 6.0058,-2.701 6.0058,-6.0058 0,-3.3049 -2.7009,-6.0059 -6.0058,-6.0059 z m 0,1.9999 c 2.224,0 4.006,1.782 4.006,4.006 0,2.224 -1.782,4.0059 -4.006,4.0059 -2.2239,0 -4.0059,-1.7819 -4.0059,-4.0059 0,-2.224 1.782,-4.006 4.0059,-4.006 z"
       style="baseline-shift:baseline;display:inline;overflow:visible;vector-effect:none;fill:#ffffff;enable-background:accumulate;stop-color:#000000;stop-opacity:1"
       id="path1524" />
    <path
       d="m 1719.7322,1755.789 c -3.3048,0 -6.0058,2.701 -6.0058,6.0058 0,3.3049 2.701,6.0058 6.0058,6.0058 3.3049,0 6.0059,-2.7009 6.0059,-6.0058 0,-3.3048 -2.701,-6.0058 -6.0059,-6.0058 z m 0,2.0003 c 2.224,0 4.006,1.7816 4.006,4.0055 0,2.224 -1.782,4.0059 -4.006,4.0059 -2.2239,0 -4.0054,-1.7819 -4.0054,-4.0059 0,-2.2239 1.7815,-4.0055 4.0054,-4.0055 z"
       style="baseline-shift:baseline;display:inline;overflow:visible;vector-effect:none;fill:#ffffff;enable-background:accumulate;stop-color:#000000;stop-opacity:1"
       id="path1523" />
    <path
       d="m 1997.8868,1313.4299 c -3.3048,0 -6.0058,2.701 -6.0058,6.0058 0,3.3049 2.701,6.0059 6.0058,6.0059 3.3049,0 6.0038,-2.701 6.0038,-6.0059 0,-3.3048 -2.699,-6.0058 -6.0038,-6.0058 z m 0,1.9999 c 2.224,0 4.0039,1.782 4.0039,4.0059 0,2.224 -1.7799,4.0055 -4.0039,4.0055 -2.2239,0 -4.0059,-1.7815 -4.0059,-4.0055 0,-2.2239 1.782,-4.0059 4.0059,-4.0059 z"
       style="baseline-shift:baseline;display:inline;overflow:visible;vector-effect:none;fill:#ffffff;enable-background:accumulate;stop-color:#000000;stop-opacity:1"
       id="path1522" />
    <path
       d="m 2025.5177,1271.7229 c -3.3048,0 -6.0058,2.701 -6.0058,6.0058 0,3.3048 2.701,6.0058 6.0058,6.0059 3.3048,0 6.0058,-2.701 6.0058,-6.0059 0,-3.3048 -2.701,-6.0058 -6.0058,-6.0058 z m 0,1.9999 c 2.2239,0 4.0054,1.7819 4.0054,4.0059 0,2.224 -1.7815,4.0055 -4.0054,4.0055 -2.224,-1e-4 -4.0059,-1.7815 -4.0059,-4.0055 0,-2.2239 1.7819,-4.0059 4.0059,-4.0059 z"
       style="baseline-shift:baseline;display:inline;overflow:visible;vector-effect:none;fill:#ffffff;enable-background:accumulate;stop-color:#000000;stop-opacity:1"
       id="path1521" />
    <path
       d="m 1950.1952,1296.4061 c -3.3048,-10e-5 -6.006,2.7011 -6.0059,6.0059 -10e-5,3.3049 2.7011,6.0058 6.0059,6.0058 3.3049,0 6.0058,-2.7009 6.0058,-6.0058 0,-3.3048 -2.7009,-6.006 -6.0058,-6.0059 z m 0,2.0004 c 2.224,-10e-5 4.0059,1.7815 4.0059,4.0055 0,2.224 -1.7819,4.0059 -4.0059,4.0059 -2.224,0 -4.0055,-1.7819 -4.0055,-4.0059 0,-2.224 1.7815,-4.0056 4.0055,-4.0055 z"
       style="baseline-shift:baseline;display:inline;overflow:visible;vector-effect:none;fill:#ffffff;enable-background:accumulate;stop-color:#000000;stop-opacity:1"
       id="path1520" />
    <path
       style="opacity:1;fill:#000080;fill-opacity:1;stroke:none;stroke-width:13.0665;stroke-dasharray:none;stroke-opacity:1"
       d=""
       id="path1804"
       transform="scale(0.26458333)" />
    <path
       style="opacity:1;fill:#000080;fill-opacity:1;stroke:none;stroke-width:124.159;stroke-dasharray:none;stroke-opacity:1"
       d=""
       id="path1810"
       transform="scale(0.26458333)" />
    <path
       style="opacity:1;fill:#000080;fill-opacity:1;stroke:none;stroke-width:25.3216;stroke-dasharray:none;stroke-opacity:1"
       d=""
       id="path1811"
       transform="scale(0.26458333)" />
    <path
       style="opacity:1;fill:#800080;fill-opacity:1;stroke:none;stroke-width:9.93018;stroke-dasharray:none;stroke-opacity:1"
       d=""
       id="path1822"
       transform="scale(0.26458333)" />
    <path
       style="opacity:1;fill:#800080;fill-opacity:1;stroke:none;stroke-width:9.93018;stroke-dasharray:none;stroke-opacity:1"
       d=""
       id="path1824"
       transform="scale(0.26458333)" />
    <path
       style="opacity:1;fill:#800080;fill-opacity:1;stroke:none;stroke-width:9.93018;stroke-dasharray:none;stroke-opacity:1"
       d=""
       id="path1825"
       transform="scale(0.26458333)" />
    <path
       style="opacity:1;fill:#800080;fill-opacity:1;stroke:none;stroke-width:9.93018;stroke-dasharray:none;stroke-opacity:1"
       d=""
       id="path1826"
       transform="scale(0.26458333)" />
    <path
       style="opacity:1;fill:none;fill-opacity:1;stroke:none;stroke-width:2;stroke-dasharray:none;stroke-opacity:1"
       d="m 619.17079,4090.5572 c -103.9285,-224.0412 -133.306,-481.9103 -82.43398,-723.587 53.1732,-252.6089 193.85828,-485.8234 392.09453,-651.1747 198.23626,-165.3513 452.68046,-261.8717 710.68896,-270.2541 15.9877,-0.5194 32.0995,-0.7244 47.7517,-4.024 15.6522,-3.2995 31.0432,-9.9767 42.0097,-21.6221 8.4635,-8.9874 13.9165,-20.5924 16.3696,-32.6914 2.4532,-12.099 1.9941,-24.6805 -0.3905,-36.7932 -4.7692,-24.2254 -16.9547,-46.2431 -28.8021,-67.9054 -50.8788,-93.0287 -99.3946,-190.2589 -112.2754,-295.5067 -6.4404,-52.6238 -3.6395,-106.7684 12.0718,-157.4034 15.7114,-50.635 44.7188,-97.6368 85.5486,-131.4552 11.9024,-9.8585 25.1843,-18.7669 40.3011,-21.9824 16.3808,-3.4843 33.8926,0.1677 48.3303,8.6544 14.4377,8.4868 25.8894,21.5607 33.7989,36.3225 15.8191,29.5237 17.5486,64.4227 16.7916,97.9087 -0.9604,42.4841 -5.3558,84.8941 -4.5112,127.3806 0.8446,42.4865 7.2185,85.7131 26.4936,123.5851 12.3016,24.1704 29.8846,45.8682 52.064,61.4763 22.1795,15.6081 49.0474,24.9184 76.1666,24.6214 25.0368,-0.2742 49.9146,-8.8171 69.838,-23.9821 19.9234,-15.1649 34.7835,-36.8689 41.7159,-60.9284 6.9324,-24.0595 5.8992,-50.3429 -2.9004,-73.7839 -8.7997,-23.4411 -25.3176,-43.9116 -46.37,-57.4658"
       id="path1833" />
    <path
       style="fill:#ffffff;stroke-dasharray:16.1999, 16.1999"
       d="m 1997.8223,1778.2617 0.027,2.6992 c 5.3667,-0.054 10.735,0.089 16.0918,0.4258 l 0.1699,-2.6953 c -5.4217,-0.3406 -10.8564,-0.4843 -16.289,-0.4297 z m -16.2774,0.7442 c -5.414,0.4465 -10.8118,1.0893 -16.1797,1.9336 l 0.42,2.666 c 5.3009,-0.8337 10.6331,-1.467 15.9824,-1.9082 z m 48.7813,1.3007 -0.3653,2.6758 c 5.3172,0.725 10.6067,1.6477 15.8555,2.7656 l 0.5625,-2.6406 c -5.3141,-1.1318 -10.6691,-2.0667 -16.0527,-2.8008 z m -80.9551,3.7481 c -5.2917,1.2337 -10.5379,2.6661 -15.7227,4.291 l 0.8086,2.5762 c 5.1208,-1.6049 10.3013,-3.0179 15.5274,-4.2364 z m 112.8105,3.0312 -0.7539,2.5918 c 5.1523,1.5011 10.2488,3.1928 15.2754,5.0723 l 0.9453,-2.5273 c -5.0892,-1.9029 -10.2502,-3.6169 -15.4668,-5.1368 z m -143.8925,6.7012 c -5.0514,2.0013 -10.0276,4.1908 -14.9161,6.5625 l 1.1778,2.4297 c 4.8281,-2.3424 9.7433,-4.5058 14.7324,-6.4824 z m 174.4023,4.7012 -1.1309,2.4531 c 4.8747,2.2447 9.6667,4.6699 14.3614,7.2695 l 1.3086,-2.3632 c -4.7534,-2.6322 -9.604,-5.0869 -14.5391,-7.3594 z m -203.7109,9.5058 c -4.7024,2.7221 -9.3031,5.6177 -13.791,8.6797 l 1.5214,2.2305 c 4.4332,-3.0247 8.9787,-5.8858 13.6231,-8.5742 z m 232.207,6.2618 -1.4766,2.2617 c 4.4931,2.9346 8.8782,6.0346 13.1426,9.2929 l 1.6387,-2.1445 c -4.3171,-3.2986 -8.7558,-6.439 -13.3047,-9.4101 z m -259.1152,12.0859 c -4.2524,3.3811 -8.3815,6.9176 -12.375,10.6016 l 1.83,1.9843 c 3.9447,-3.6388 8.0256,-7.1324 12.2266,-10.4726 z m 285,7.6797 -1.791,2.0215 c 4.0163,3.5602 7.9038,7.2667 11.6484,11.1113 l 1.9336,-1.8848 c -3.7909,-3.8921 -7.7256,-7.6443 -11.791,-11.248 z m -308.9434,14.3965 c -3.7163,3.9633 -7.2866,8.0631 -10.7012,12.289 l 2.1016,1.6973 c 3.3729,-4.1744 6.8994,-8.2238 10.5703,-12.1387 z m 331.6719,8.9297 -2.0664,1.7382 c 3.456,4.1058 6.7621,8.3402 9.9062,12.6895 l 2.1875,-1.582 c -3.183,-4.4031 -6.5285,-8.6892 -10.0273,-12.8457 z m -352.1465,16.3984 c -3.0977,4.4633 -6.0319,9.0394 -8.793,13.7187 l 2.3262,1.3731 c 2.7272,-4.6221 5.6255,-9.1437 8.6855,-13.5527 z m 371.2344,9.9902 -2.2989,1.42 c 2.819,4.5665 5.4705,9.2377 7.9454,14 l 2.3945,-1.2461 c -2.5053,-4.8209 -5.187,-9.5505 -8.041,-14.1739 z m -387.7871,18.0567 c -2.4111,4.869 -4.6432,9.8282 -6.6856,14.8633 l 2.502,1.0156 c 2.0171,-4.9728 4.222,-9.8705 6.6035,-14.6797 z m 402.8047,10.8457 -2.4825,1.0644 c 2.1174,4.9312 4.0518,9.941 5.7969,15.0157 l 2.5547,-0.879 c -1.767,-5.1381 -3.7255,-10.2086 -5.8691,-15.2011 z m -415.0567,19.332 c -1.6677,5.1713 -3.1425,10.4064 -4.4199,15.6875 l 2.625,0.6348 c 1.2616,-5.216 2.7182,-10.385 4.3652,-15.4922 z m 425.6543,11.4648 -2.6113,0.6875 c 1.3667,5.1895 2.5391,10.4303 3.5176,15.7071 l 2.6562,-0.4922 c -0.9906,-5.3421 -2.1787,-10.648 -3.5625,-15.9024 z m -433.3203,20.1915 c -0.8856,5.3602 -1.5765,10.7526 -2.0645,16.164 l 2.6895,0.2422 c 0.482,-5.3448 1.1622,-10.6717 2.0371,-15.9668 z m 439.2617,11.83 -2.6836,0.2969 c 0.5903,5.3339 0.9824,10.6911 1.1797,16.0547 l 2.6973,-0.1 c -0.1998,-5.4289 -0.5958,-10.8515 -1.1934,-16.252 z m -442.2031,20.6035 c -0.097,5.4315 0,10.8682 0.3027,16.293 l 2.6953,-0.1484 c -0.295,-5.3587 -0.3942,-10.7291 -0.2988,-16.0957 z m 440.8516,3.9825 c -8e-4,5.368 -0.193,10.7338 -0.584,16.0859 l 2.6933,0.1973 c 0.3959,-5.4192 0.5891,-10.8514 0.5899,-16.2832 z m -436.3887,28.1933 -2.6778,0.3438 c 0.6908,5.3893 1.5808,10.753 2.668,16.0762 l 2.6465,-0.5411 c -1.074,-5.2582 -1.9545,-10.556 -2.6367,-15.8789 z m 434.0547,3.8965 c -0.7791,5.31 -1.7541,10.5909 -2.9239,15.8281 l 2.6368,0.5879 c 1.1844,-5.3029 2.1703,-10.6499 2.9589,-16.0254 z m -427.6153,27.6231 -2.5996,0.7343 c 1.4767,5.229 3.1479,10.4033 5.0098,15.5078 l 2.5371,-0.9257 c -1.8389,-5.0415 -3.4888,-10.152 -4.9473,-15.3164 z m 420.6075,3.7754 c -1.5513,5.1371 -3.2948,10.2173 -5.2247,15.2246 l 2.5196,0.9707 c 1.954,-5.07 3.7203,-10.2145 5.291,-15.4161 z m -409.5918,26.4511 -2.4629,1.1074 c 2.2316,4.9542 4.6484,9.8247 7.2402,14.5997 l 2.373,-1.2872 c -2.5602,-4.7168 -4.9463,-9.5271 -7.1503,-14.4199 z m 398.0312,3.5703 c -2.2918,4.8524 -4.7654,9.6191 -7.4101,14.2891 l 2.3496,1.3301 c 2.6773,-4.7275 5.1814,-9.5537 7.5019,-14.4668 z m -382.6875,24.7051 -2.2715,1.459 c 2.9351,4.5718 6.0387,9.0372 9.3028,13.3809 l 2.1582,-1.6231 c -3.224,-4.2902 -6.29,-8.7004 -9.1895,-13.2168 z m 366.8359,3.291 c -2.9801,4.4637 -6.1217,8.817 -9.4218,13.0489 l 2.1289,1.6621 c 3.3412,-4.2846 6.5224,-8.6946 9.539,-13.2129 z m -347.5156,22.4375 -2.0351,1.7735 c 3.5698,4.0959 7.2916,8.0586 11.1523,11.8808 l 1.8984,-1.9179 c -3.814,-3.7761 -7.4896,-7.6907 -11.0156,-11.7364 z m 327.7403,2.9395 c -3.5977,3.9821 -7.3438,7.8317 -11.2247,11.539 l 1.8653,1.9532 c 3.9283,-3.7528 7.7209,-7.6501 11.3633,-11.6817 z m -304.8809,19.6992 -1.7539,2.0527 c 4.1288,3.5308 8.3861,6.9104 12.7637,10.1289 l 1.5996,-2.1757 c -4.3237,-3.1789 -8.5303,-6.5177 -12.6094,-10.0059 z m 281.6191,2.5293 c -4.1408,3.4148 -8.4053,6.6783 -12.7851,9.7793 l 1.5605,2.2051 c 4.4345,-3.1397 8.7521,-6.446 12.9434,-9.9024 z m -255.7031,16.5352 -1.4355,2.2871 c 4.5996,2.8921 9.3062,5.6128 14.1074,8.1562 l 1.2637,-2.3848 c -4.7423,-2.5121 -9.3926,-5.202 -13.9356,-8.0585 z m 229.4512,2.0625 c -4.5936,2.7745 -9.2915,5.3803 -14.0781,7.8066 l 1.2207,2.4082 c 4.8463,-2.4565 9.6031,-5.0932 14.2539,-7.9023 z m -201.0254,13.0058 -1.0859,2.4707 c 4.9747,2.1849 10.0309,4.1849 15.1543,5.9942 l 0.9003,-2.545 c -5.0602,-1.7869 -10.0553,-3.7619 -14.9687,-5.9199 z m 172.334,1.5469 c -4.9515,2.069 -9.9805,3.9537 -15.0723,5.6484 l 0.8516,2.5625 c 5.1554,-1.7159 10.2483,-3.6238 15.2617,-5.7187 z m -142,9.168 -0.709,2.6054 c 5.2426,1.4269 10.5385,2.6606 15.873,3.6934 l 0.5118,-2.6524 c -5.2685,-1.0199 -10.4977,-2.2371 -15.6758,-3.6464 z m 111.4765,0.998 c -5.2025,1.3159 -10.4542,2.4385 -15.7402,3.3633 l 0.4668,2.6601 c 5.3522,-0.9363 10.668,-2.0739 15.9355,-3.4062 z m -79.8945,5.1309 -0.3184,2.6797 c 5.3956,0.6415 10.8133,1.0823 16.2403,1.3261 l 0.123,-2.6972 c -5.3619,-0.241 -10.7161,-0.675 -16.0449,-1.3086 z m 48.207,0.4277 c -5.3399,0.537 -10.6994,0.877 -16.0644,1.0215 l 0.072,2.6992 c 5.4309,-0.1462 10.8579,-0.4916 16.2636,-1.0352 z"
       id="path1834" />
    <path
       style="fill:#ffffff;stroke-dasharray:16.1999, 16.1999"
       d="m 2004.4375,1074.8691 c -5.4084,-0.028 -10.8175,-0 -16.2246,0.065 l 0.035,2.6992 c 5.3919,-0.069 10.7825,-0.093 16.1739,-0.064 z m 16.2207,0.2188 -0.061,2.6992 c 5.3905,0.119 10.7803,0.2884 16.1679,0.5039 l 0.1074,-2.6992 c -5.4036,-0.2162 -10.808,-0.3845 -16.2148,-0.5039 z m -48.6641,0.1934 c -5.4054,0.1623 -10.8108,0.3725 -16.2128,0.6328 l 0.1308,2.6972 c 5.3854,-0.2595 10.7726,-0.4689 16.1621,-0.6308 z m 81.084,1.0996 -0.1543,2.6953 c 5.3828,0.3069 10.7618,0.664 16.1387,1.0683 l 0.2031,-2.6914 c -5.3926,-0.4055 -10.7879,-0.7643 -16.1875,-1.0722 z m -113.4922,0.4492 c -5.3962,0.3526 -10.7901,0.7521 -16.1796,1.2012 l 0.2226,2.6914 c 5.3731,-0.4478 10.7521,-0.8457 16.1328,-1.1973 z m 145.8457,1.9785 -0.248,2.6875 c 5.3692,0.4975 10.7332,1.0407 16.0918,1.6348 l 0.2969,-2.6836 c -5.3756,-0.5959 -10.7561,-1.1398 -16.1407,-1.6387 z m -178.1796,0.707 c -5.3815,0.5398 -10.7588,1.1308 -16.129,1.7676 l 0.3184,2.6816 c 5.3546,-0.6349 10.7155,-1.2236 16.0801,-1.7617 z m 210.4296,2.8535 -0.3437,2.6797 c 5.3479,0.6838 10.6915,1.4181 16.0273,2.1973 l 0.3887,-2.6719 c -5.3508,-0.7813 -10.7075,-1.5192 -16.0723,-2.2051 z m -242.6503,0.9649 c -5.3583,0.7299 -10.7118,1.5055 -16.0567,2.332 l 0.4141,2.668 c 5.3281,-0.824 10.663,-1.5984 16.0058,-2.3262 z m 274.7539,3.7265 -0.4356,2.6641 c 5.321,0.8715 10.6334,1.7918 15.9375,2.7598 l 0.4844,-2.6563 c -5.3203,-0.9709 -10.6494,-1.8934 -15.9863,-2.7676 z m -306.8204,1.2188 c -5.3303,0.916 -10.6507,1.8819 -15.9628,2.8926 l 0.5039,2.6523 c 5.2974,-1.0078 10.6024,-1.9716 15.916,-2.8847 z m 338.7422,4.5957 -0.5312,2.6465 c 5.287,1.0583 10.5647,2.1639 15.832,3.3164 l 0.5781,-2.6387 c -5.283,-1.1559 -10.5761,-2.2628 -15.8789,-3.3242 z m -370.6152,1.4707 c -5.2943,1.1031 -10.5799,2.2541 -15.8535,3.4531 l 0.5996,2.6328 c 5.2575,-1.1953 10.5261,-2.3416 15.8047,-3.4414 z m 402.3105,5.459 -0.621,2.6269 c 5.2467,1.2421 10.4816,2.532 15.705,3.8692 l 0.67,-2.6153 c -5.2392,-1.3412 -10.4912,-2.635 -15.754,-3.8808 z m -433.9511,1.7226 c -5.2526,1.2881 -10.4943,2.6245 -15.7227,4.0059 l 0.6895,2.6113 c 5.2132,-1.3774 10.4392,-2.71 15.6758,-3.9941 z m 465.3867,6.3145 -0.7149,2.6035 c 5.2,1.427 10.3873,2.8987 15.5606,4.418 l 0.7617,-2.5899 c -5.189,-1.5239 -10.3924,-3.0005 -15.6074,-4.4316 z m -496.7559,1.9727 c -5.204,1.4712 -10.3956,2.9891 -15.5722,4.5546 l 0.7812,2.586 c 5.1609,-1.5608 10.3369,-3.0761 15.5254,-4.543 z m 527.8887,7.1621 -0.8047,2.5781 c 5.1468,1.6066 10.2776,3.2591 15.3945,4.959 l 0.8516,-2.5606 c -5.1322,-1.7049 -10.2789,-3.365 -15.4414,-4.9765 z m -558.9492,2.2187 c -5.1492,1.6533 -10.2837,3.353 -15.4024,5.0977 l 0.8711,2.5566 c 5.1038,-1.7395 10.2238,-3.4338 15.3575,-5.082 z m 589.7422,8.002 -0.8946,2.5468 c 5.0872,1.788 10.1589,3.62 15.2129,5.4981 l 0.9395,-2.5313 c -5.0695,-1.8838 -10.1561,-3.7205 -15.2578,-5.5136 z m -620.4532,2.4648 c -5.0882,1.8323 -10.1606,3.7104 -15.2148,5.6348 l 0.9609,2.5234 c 5.0389,-1.9185 10.0951,-3.7923 15.168,-5.6191 z m 650.8692,8.8301 -0.9824,2.5137 c 5.0215,1.9633 10.0245,3.9731 15.0097,6.0273 l 1.0293,-2.4961 c -5.0001,-2.0603 -10.0197,-4.0756 -15.0566,-6.0449 z m -681.1953,2.7031 c -5.0208,2.01 -10.024,4.0651 -15.0078,6.1641 l 1.0488,2.4883 c 4.9694,-2.0929 9.9573,-4.1407 14.9629,-6.1446 z m 711.1972,9.6485 -1.0703,2.4785 c 4.9494,2.1399 9.879,4.3232 14.7891,6.5507 l 1.1172,-2.4589 c -4.9251,-2.2344 -9.8723,-4.4242 -14.836,-6.5703 z m -741.0996,2.9433 c -4.9473,2.1843 -9.8743,4.4137 -14.7812,6.6875 l 1.1347,2.4492 c 4.8921,-2.2669 9.8039,-4.4883 14.7364,-6.666 z m 770.6504,10.4551 -1.1562,2.4394 c 4.8716,2.3104 9.7217,4.6641 14.5508,7.0625 l 1.2011,-2.4179 c -4.8435,-2.4057 -9.7091,-4.7666 -14.5957,-7.084 z m -800.0937,3.1758 c -4.8676,2.3567 -9.7145,4.7582 -14.5391,7.2011 l 1.2207,2.4082 c 4.8105,-2.4358 9.6413,-4.83 14.4942,-7.1796 z m 829.1562,11.248 -1.2422,2.3965 c 4.7873,2.4815 9.5531,5.0042 14.295,7.5703 l 1.2851,-2.375 c -4.7564,-2.574 -9.5368,-5.1031 -14.3379,-7.5918 z m -858.1035,3.4082 c -4.7821,2.5256 -9.5418,5.0931 -14.2773,7.7051 l 1.3047,2.3652 c 4.7211,-2.6041 9.4666,-5.1656 14.2343,-7.6836 z m 886.6426,12.0274 -1.3262,2.3515 c 4.6978,2.646 9.3723,5.3355 14.0215,8.0664 l 1.3672,-2.3281 c -4.6631,-2.739 -9.3503,-5.4357 -14.0625,-8.0898 z m -915.0586,3.6328 c -4.6903,2.6922 -9.3566,5.4258 -13.9981,8.2011 l 1.3868,2.3184 c 4.6277,-2.7672 9.2788,-5.4936 13.955,-8.1777 z m 943.0391,12.7929 -1.4063,2.3028 c 4.6015,2.8113 9.1785,5.6622 13.7285,8.5547 l 1.4473,-2.2793 c -4.5642,-2.9015 -9.1551,-5.7589 -13.7695,-8.5782 z m -970.8868,3.8555 c -4.5935,2.8544 -9.1622,5.7501 -13.7031,8.6875 l 1.4668,2.2676 c 4.5272,-2.9285 9.0806,-5.8164 13.6602,-8.6621 z m 998.2735,13.541 -1.4864,2.2539 c 4.5008,2.9686 8.9733,5.9795 13.42,9.0293 l 1.5273,-2.2265 c -4.4597,-3.0588 -8.9462,-6.0789 -13.4609,-9.0567 z m -1025.5215,4.0723 c -4.4894,3.0148 -8.9534,6.0693 -13.3887,9.1641 l 1.5449,2.2128 c 4.4218,-3.0852 8.8712,-6.1286 13.3477,-9.1347 z m 1052.2812,14.2754 -1.5644,2.1992 c 4.3932,3.1268 8.7581,6.2915 13.0937,9.4961 l 1.6055,-2.1719 c -4.3494,-3.2147 -8.7292,-6.3877 -13.1348,-9.5234 z m -1078.8945,4.2851 c -4.3824,3.1693 -8.7347,6.3791 -13.0586,9.627 l 1.6211,2.1582 c 4.3112,-3.2384 8.6507,-6.4382 13.0195,-9.5977 z m 1104.9941,14.9903 -1.6406,2.1426 c 4.2815,3.2766 8.5311,6.5957 12.7539,9.9492 l 1.6797,-2.1153 c -4.2346,-3.3629 -8.4979,-6.6895 -12.793,-9.9765 z m -1130.9414,4.4902 c -4.2665,3.3224 -8.5058,6.6811 -12.7128,10.0801 l 1.6972,2.0996 c 4.1937,-3.3882 8.4212,-6.7358 12.6758,-10.0488 z m 1156.3497,15.6875 -1.7168,2.084 c 4.1636,3.426 8.2979,6.8899 12.3984,10.3906 l 1.7519,-2.0527 c -4.1132,-3.5116 -8.2576,-6.9857 -12.4335,-10.4219 z m -1181.5938,4.6914 c -4.1497,3.4688 -8.2672,6.978 -12.3535,10.5195 l 1.7695,2.0391 c 4.075,-3.5318 8.178,-7.0285 12.3145,-10.4863 z m 1206.2773,16.3653 -1.7871,2.0234 c 4.0406,3.5705 8.0497,7.1763 12.0254,10.8183 l 1.8242,-1.9902 c -3.9878,-3.6531 -8.0101,-7.2706 -12.0625,-10.8515 z m -1230.7949,4.8886 c -4.0247,3.6124 -8.0161,7.2605 -11.9746,10.9453 l 1.8399,1.9766 c 3.9465,-3.6737 7.9268,-7.3106 11.9394,-10.9121 z m 1254.7246,17.0215 -1.8574,1.9609 c 3.9137,3.7082 7.7936,7.4539 11.6406,11.2325 l 1.8926,-1.9278 c -3.8579,-3.7892 -7.7496,-7.5457 -11.6758,-11.2656 z m -1278.4804,5.0762 c -3.8936,3.7523 -7.7571,7.5373 -11.584,11.3594 l 1.9082,1.9101 c 3.8147,-3.8098 7.6659,-7.5822 11.5488,-11.3242 z m 1301.6289,17.6582 -1.9239,1.8945 c 3.781,3.8441 7.5278,7.7211 11.2383,11.6328 l 1.959,-1.8574 c -3.722,-3.9238 -7.4812,-7.8144 -11.2734,-11.6699 z m -1324.5957,5.2597 c -3.7625,3.8853 -7.4879,7.8067 -11.1797,11.7579 l 1.9726,1.8437 c 3.6815,-3.9401 7.3959,-7.8496 11.1465,-11.7226 z m 1346.9336,18.2735 -1.9903,1.8242 c 3.6433,3.9754 7.2531,7.9803 10.8242,12.0195 l 2.0235,-1.7871 c -3.5823,-4.0519 -7.2038,-8.0699 -10.8574,-12.0566 z m -1369.0821,5.4355 c -3.6236,4.0147 -7.2116,8.0629 -10.7617,12.1426 l 2.0371,1.7715 c 3.5395,-4.0675 7.1159,-8.103 10.7285,-12.1055 z m 1390.5801,18.8633 -2.0527,1.7539 c 3.5028,4.0985 6.9673,8.2311 10.3965,12.3926 l 2.0839,-1.7168 c -3.4388,-4.1733 -6.9138,-8.3182 -10.4277,-12.4297 z m -1411.8867,5.6074 c -3.4784,4.1403 -6.9236,8.3092 -10.3281,12.5118 l 2.0976,1.6992 c 3.3938,-4.1893 6.8282,-8.3459 10.2969,-12.4746 z m 1432.5215,19.4317 -2.1133,1.6816 c 3.3562,4.2201 6.6761,8.4701 9.9551,12.75 l 2.1425,-1.6426 c -3.2891,-4.2931 -6.6182,-8.5565 -9.9843,-12.789 z m -1452.9551,5.7695 c -3.3338,4.2588 -6.6266,8.5499 -9.8828,12.8672 l 2.1562,1.625 c 3.2471,-4.3051 6.5303,-8.5827 9.8535,-12.8281 z m 1472.6973,19.9785 -2.17,1.6055 c 3.2063,4.3348 6.3715,8.7001 9.5,13.0918 l 2.1993,-1.5664 c -3.1377,-4.4045 -6.3133,-8.7828 -9.5293,-13.1309 z m -1492.2344,5.9258 c -3.1809,4.3734 -6.3244,8.7744 -9.4258,13.2051 l 2.2129,1.5488 c 3.0918,-4.417 6.2249,-8.8054 9.3965,-13.166 z m 1511.0605,20.5 -2.2246,1.5273 c 3.0526,4.4445 6.0639,8.9169 9.0352,13.4161 l 2.2539,-1.4883 c -2.9803,-4.5128 -6.0026,-8.9972 -9.0645,-13.4551 z m -1529.6777,6.0742 c -3.0263,4.4824 -6.0115,8.9923 -8.957,13.5274 l 2.2656,1.4707 c 2.9371,-4.5222 5.9127,-9.0198 8.9297,-13.4883 z m 1547.5684,20.9942 -2.2793,1.4492 c 2.8937,4.5498 5.7486,9.1242 8.5605,13.7246 l 2.3027,-1.4082 c -2.8205,-4.6145 -5.6818,-9.2026 -8.5839,-13.7656 z m -1565.2403,6.2148 c -2.867,4.5856 -5.6932,9.197 -8.4765,13.834 l 2.3144,1.3906 c 2.7749,-4.6228 5.5928,-9.2212 8.4512,-13.793 z m 1582.166,21.4649 -2.3261,1.3691 c 2.7336,4.6473 5.4233,9.3193 8.0722,14.0156 l 2.3516,-1.3262 c -2.6568,-4.7103 -5.3557,-9.397 -8.0977,-14.0585 z m -1598.875,6.3476 c -2.7039,4.6836 -5.3644,9.3922 -7.9843,14.1231 l 2.3613,1.3085 c 2.6123,-4.7169 5.2651,-9.4125 7.9609,-14.082 z m 1614.8243,21.9082 -2.375,1.2852 c 2.5674,4.7418 5.0939,9.5048 7.5761,14.291 l 2.3965,-1.2422 c -2.49,-4.8011 -5.0229,-9.5786 -7.5976,-14.334 z m -1630.545,6.4746 c -2.5387,4.7752 -5.0347,9.574 -7.4863,14.3946 l 2.4063,1.2226 c 2.4441,-4.8059 4.9318,-9.5888 7.4628,-14.3496 z m 1645.4903,22.3223 -2.418,1.2031 c 2.4012,4.8274 4.7569,9.6765 7.0703,14.5469 l 2.4395,-1.1582 c -2.3203,-4.8849 -4.6832,-9.7495 -7.0918,-14.5918 z m -1660.209,6.5937 c -2.3689,4.8616 -4.6946,9.7436 -6.9766,14.6465 l 2.4492,1.1387 c 2.2752,-4.8884 4.5932,-9.7564 6.9551,-14.6035 z m 1674.1367,22.711 -2.459,1.1152 c 2.2288,4.9102 4.4159,9.8387 6.5567,14.7871 l 2.4785,-1.0722 c -2.1475,-4.9638 -4.3411,-9.9061 -6.5762,-14.8301 z m -1687.8301,6.7011 c -2.1979,4.9414 -4.3512,9.9043 -6.459,14.8848 l 2.4864,1.0508 c 2.1014,-4.9654 4.2482,-9.9115 6.4394,-14.8379 z m 1700.7207,23.0723 -2.4961,1.0313 c 2.0571,4.9838 4.0687,9.9853 6.0352,15.0058 l 2.5137,-0.9844 c -1.9724,-5.0354 -3.9894,-10.0535 -6.0528,-15.0527 z m -1713.3769,6.8047 c -2.0226,5.0156 -3.9988,10.0489 -5.9317,15.0996 l 2.5215,0.9649 c 1.9272,-5.0359 3.8976,-10.0541 5.9141,-15.0547 z m 1725.2187,23.4043 -2.5312,0.9414 c 1.8793,5.0542 3.7169,10.1228 5.5058,15.209 l 2.5469,-0.8945 c -1.7944,-5.102 -3.6368,-10.1873 -5.5215,-15.2559 z m -1736.8183,6.8965 c -1.8463,5.0832 -3.6468,10.1829 -5.4004,15.2988 l 2.5547,0.875 c 1.7483,-5.1004 3.544,-10.1841 5.3847,-15.2519 z m 1747.5918,23.707 -2.5625,0.8535 c 1.7028,5.1157 3.3589,10.2466 4.9687,15.3926 l 2.5762,-0.8066 c -1.6147,-5.1613 -3.2744,-10.3081 -4.9824,-15.4395 z m -1758.1231,6.9824 c -1.6661,5.145 -3.2852,10.3048 -4.8594,15.4785 l 2.5821,0.7852 c 1.5695,-5.1585 3.1845,-10.3039 4.8457,-15.4336 z m 1767.8184,23.9805 -2.5899,0.7617 c 1.5205,5.1735 2.9959,10.3596 4.4239,15.5586 l 2.6035,-0.7148 c -1.4324,-5.2153 -2.9127,-10.4173 -4.4375,-15.6055 z m -1777.2656,7.0586 c -1.4857,5.2001 -2.9236,10.4125 -4.3145,15.6387 l 2.6094,0.6953 c 1.3867,-5.2104 2.8196,-10.4094 4.3008,-15.5938 z m 1785.8671,24.2266 -2.6152,0.6699 c 1.3402,5.2224 2.6335,10.4589 3.8789,15.7051 l 2.627,-0.625 c -1.2491,-5.2617 -2.5463,-10.5115 -3.8907,-15.75 z m -1794.2226,7.125 c -1.3011,5.249 -2.5564,10.5096 -3.7637,15.7812 l 2.6328,0.6016 c 1.2037,-5.2558 2.4547,-10.5008 3.752,-15.7344 z m 1801.7246,24.4414 -2.6367,0.5781 c 1.154,5.2674 2.2626,10.5438 3.3222,15.8301 l 2.6485,-0.5313 c -1.063,-5.303 -2.1767,-10.5947 -3.334,-15.8769 z m -1808.9727,7.1836 c -1.1176,5.2914 -2.1876,10.5916 -3.2089,15.9023 l 2.6523,0.5098 c 1.0183,-5.2949 2.083,-10.5802 3.1973,-15.8555 z m 1815.3614,24.6269 -2.6563,0.4863 c 0.9709,5.3034 1.8924,10.6149 2.7676,15.9356 l 2.6641,-0.4375 c -0.8777,-5.336 -1.8015,-10.6644 -2.7754,-15.9844 z m -1821.5,7.2324 c -0.929,5.3272 -1.8126,10.6621 -2.6465,16.0059 l 2.6679,0.418 c 0.8314,-5.327 1.7124,-10.6468 2.6387,-15.959 z m 1826.7695,24.7813 -2.6719,0.3926 c 0.7827,5.335 1.5189,10.6757 2.2051,16.0234 l 2.6777,-0.3418 c -0.6883,-5.3644 -1.426,-10.7238 -2.2109,-16.0742 z m -1831.7813,7.2734 c -0.7442,5.357 -1.4386,10.721 -2.0859,16.0899 l 2.6797,0.3242 c 0.6455,-5.3534 1.3382,-10.7008 2.0801,-16.041 z m 1835.9239,24.9063 -2.6836,0.2988 c 0.5963,5.3585 1.142,10.7228 1.6426,16.0918 l 2.6875,-0.25 c -0.502,-5.3843 -1.0484,-10.7654 -1.6465,-16.1406 z m -1839.8125,7.3066 c -0.5541,5.3793 -1.0607,10.7633 -1.5176,16.1524 l 2.6894,0.2285 c 0.4555,-5.3723 0.9612,-10.7398 1.5137,-16.1035 z m 1842.8222,25 -2.6914,0.2031 c 0.4079,5.3763 0.766,10.7578 1.0762,16.1407 l 2.6953,-0.1563 c -0.3112,-5.3991 -0.6709,-10.7948 -1.0801,-16.1875 z m -1845.5761,7.3281 c -0.366,5.3958 -0.6819,10.7942 -0.9512,16.1953 l 2.6953,0.1348 c 0.2685,-5.3854 0.5844,-10.7671 0.9492,-16.1465 z m 1847.4531,25.0625 -2.6973,0.1094 c 0.2169,5.3881 0.3892,10.778 0.5098,16.168 l 2.6992,-0.061 c -0.121,-5.4072 -0.2943,-10.8137 -0.5117,-16.2168 z m -1849.0723,7.3418 c -0.1773,5.4055 -0.3033,10.8135 -0.3828,16.2207 l 2.6992,0.039 c 0.079,-5.3915 0.2061,-10.7813 0.3828,-16.1699 z m 1849.8125,25.0957 -2.7011,0.014 0.01,2.0176 0.01,2.8672 v 0 c -7e-4,5.3919 -0.048,10.7821 -0.1446,16.1719 l 2.7012,0.049 c 0.097,-5.4077 0.1419,-10.8153 0.1426,-16.2226 h -1.3496 l 1.3496,-0 -0,-2.873 z m -1847.5957,7.3399 -2.6992,0.01 c 0.014,5.4077 0.074,10.8154 0.1856,16.2226 l 2.6992,-0.057 c -0.111,-5.3903 -0.1718,-10.7816 -0.1856,-16.1738 z m 1844.3418,29.9043 c -0.1867,5.3882 -0.424,10.7752 -0.707,16.1601 l 2.6953,0.1426 c 0.2838,-5.4 0.5216,-10.8037 0.709,-16.209 z m -1843.6894,2.4414 -2.6973,0.1 c 0.2028,5.4042 0.4544,10.8073 0.7539,16.207 l 2.6953,-0.1504 c -0.2986,-5.3836 -0.5497,-10.7681 -0.7519,-16.1562 z m 1841.9882,29.8652 c -0.3759,5.3786 -0.7998,10.7541 -1.2734,16.125 l 2.6895,0.2363 c 0.4749,-5.3871 0.9022,-10.7788 1.2793,-16.1738 z m -1840.2011,2.4356 -2.6934,0.1953 c 0.3909,5.3942 0.8319,10.7842 1.3203,16.1699 l 2.6895,-0.2441 c -0.487,-5.3701 -0.9267,-10.7437 -1.3164,-16.1211 z m 1837.3711,29.791 c -0.5666,5.3625 -1.1778,10.7196 -1.8399,16.0703 l 2.6797,0.332 c 0.6641,-5.3675 1.2776,-10.7415 1.8457,-16.1191 z m -1834.4551,2.4277 -2.6836,0.291 c 0.5817,5.3763 1.2082,10.7476 1.8867,16.1133 l 2.6797,-0.3398 c -0.6764,-5.3489 -1.3028,-10.7036 -1.8828,-16.0645 z M 2913.3945,2129 c -0.7516,5.3388 -1.5545,10.671 -2.4023,15.9961 l 2.668,0.4238 c 0.8502,-5.3404 1.6542,-10.6873 2.4082,-16.0429 z m -1826.4492,2.418 -2.6719,0.3828 c 0.7684,5.3536 1.5877,10.699 2.4512,16.0371 l 2.666,-0.4297 c -0.8611,-5.3232 -1.6794,-10.6535 -2.4453,-15.9902 z m 1821.3652,29.5312 c -0.9402,5.3096 -1.9271,10.6093 -2.9628,15.9004 l 2.6503,0.5195 c 1.039,-5.3076 2.0278,-10.6243 2.9708,-15.9492 z m -1816.1953,2.4024 -2.6582,0.4785 c 0.9563,5.3228 1.9609,10.6366 3.0137,15.9414 l 2.6484,-0.5254 c -1.0495,-5.2885 -2.0504,-10.5876 -3.0039,-15.8945 z m 1809.9922,29.3476 c -1.1243,5.273 -2.2971,10.5362 -3.5156,15.7891 l 2.6289,0.6094 c 1.2219,-5.2677 2.3995,-10.5464 3.5273,-15.836 z m -1803.707,2.3867 -2.6387,0.5704 c 1.1427,5.2859 2.3335,10.5616 3.5703,15.8261 l 2.6289,-0.6172 c -1.2331,-5.2491 -2.4212,-10.5092 -3.5605,-15.7793 z m 1796.3965,29.127 c -1.3096,5.2305 -2.6663,10.4487 -4.0703,15.6543 l 2.6074,0.7031 c 1.4084,-5.2217 2.7686,-10.4552 4.082,-15.7012 z m -1789,2.3672 -2.6172,0.6621 c 1.3268,5.2428 2.7012,10.4755 4.123,15.6933 l 2.6055,-0.7109 c -1.4175,-5.2021 -2.7886,-10.4175 -4.1113,-15.6445 z m 1780.5859,28.8711 c -1.4914,5.1811 -3.0316,10.3473 -4.6152,15.5019 l 2.582,0.793 c 1.5881,-5.1691 3.1329,-10.3515 4.6289,-15.5488 z m -1772.0918,2.3457 -2.5918,0.7539 c 1.5108,5.1926 3.0668,10.3721 4.6699,15.5371 l 2.5801,-0.8008 c -1.5984,-5.1495 -3.1518,-10.3129 -4.6582,-15.4902 z m 1762.5899,28.5781 c -1.6728,5.1259 -3.391,10.2356 -5.1563,15.3301 l 2.5508,0.8847 c 1.7708,-5.1101 3.4941,-10.2377 5.1719,-15.3789 z m -1753.0039,2.3203 -2.5645,0.8438 c 1.6909,5.137 3.429,10.2578 5.2129,15.3632 l 2.5488,-0.8906 c -1.7785,-5.09 -3.5115,-10.195 -5.1972,-15.3164 z m 1742.4218,28.25 c -1.8508,5.0639 -3.7485,10.1117 -5.6894,15.1426 l 2.5195,0.9707 c 1.9464,-5.0451 3.8504,-10.1059 5.707,-15.1856 z m -1731.7597,2.293 -2.5332,0.9336 c 1.871,5.0739 3.7849,10.1319 5.7461,15.1719 l 2.5175,-0.9805 c -1.9553,-5.0249 -3.8649,-10.066 -5.7304,-15.125 z m 1720.1132,27.8887 c -2.0278,4.996 -4.0988,9.9753 -6.2168,14.9335 l 2.4825,1.0606 c 2.1244,-4.9735 4.2025,-9.9676 6.2363,-14.9785 z m -1708.3867,2.2617 -2.5,1.0215 c 2.0467,5.0059 4.1382,9.993 6.2754,14.9609 l 2.4805,-1.0664 c -2.1308,-4.9529 -4.2154,-9.9253 -6.2559,-14.916 z m 1695.6914,27.4941 c -2.201,4.9218 -4.4497,9.8225 -6.7382,14.7051 l 2.4453,1.1465 c 2.295,-4.8964 4.5498,-9.8129 6.7578,-14.75 z m -1682.9179,2.2266 -2.461,1.1094 c 2.2219,4.9303 4.4875,9.8422 6.7969,14.7324 l 2.4414,-1.1543 c -2.3025,-4.8756 -4.562,-9.7716 -6.7773,-14.6875 z m 1669.1855,27.0644 c -2.3729,4.8418 -4.7899,9.6633 -7.25,14.461 l 2.4024,1.2304 c 2.4677,-4.8124 4.8915,-9.6478 7.2714,-14.5039 z m -1655.375,2.1914 -2.4199,1.1934 c 2.3924,4.8502 4.8285,9.6804 7.3086,14.4863 l 2.3984,-1.2383 c -2.4725,-4.7914 -4.902,-9.6059 -7.2871,-14.4414 z m 1640.6231,26.6016 c -2.5406,4.7555 -5.1249,9.4871 -7.75,14.1973 l 2.3593,1.3144 c 2.6326,-4.7235 5.225,-9.4699 7.7735,-14.2402 z m -1625.7969,2.1523 -2.377,1.2774 c 2.562,4.7625 5.166,9.5044 7.8125,14.2207 l 2.3535,-1.3223 c -2.6385,-4.7021 -5.2346,-9.4272 -7.789,-14.1758 z m 1610.0469,26.1036 c -2.7063,4.6635 -5.4539,9.3045 -8.2442,13.9179 l 2.3106,1.3965 c 2.7989,-4.6277 5.5552,-9.2815 8.2695,-13.959 z m -1594.2207,2.1113 -2.3301,1.3613 c 2.7263,4.6707 5.494,9.3152 8.3047,13.9356 l 2.3066,-1.4024 c -2.8022,-4.6064 -5.5632,-9.238 -8.2812,-13.8945 z m 1577.4882,25.5781 c -2.868,4.5657 -5.7773,9.1051 -8.7265,13.6192 l 2.2597,1.4765 c 2.9579,-4.5272 5.8771,-9.0806 8.7539,-13.6601 z m -1560.6836,2.0645 -2.2812,1.4433 c 2.8897,4.5708 5.8179,9.1177 8.7891,13.6367 l 2.2558,-1.4843 c -2.962,-4.5052 -5.8822,-9.038 -8.7637,-13.5957 z m 1542.9903,25.0175 c -3.0262,4.4625 -6.0925,8.898 -9.1992,13.3047 l 2.207,1.5567 c 3.1162,-4.4201 6.1912,-8.8698 9.2266,-13.3457 z m -1525.2246,2.0196 -2.2305,1.5215 c 3.047,4.4683 6.1365,8.9082 9.2637,13.3203 l 2.2011,-1.5625 c -3.118,-4.3991 -6.1968,-8.8248 -9.2343,-13.2793 z m 1506.5937,24.4277 c -3.1822,4.353 -6.4029,8.6775 -9.6621,12.9727 l 2.1504,1.6328 c 3.2692,-4.3083 6.5,-8.6461 9.6914,-13.0117 z m -1487.8926,1.9688 -2.1738,1.5996 c 3.2032,4.3567 6.4433,8.6869 9.7246,12.9863 l 2.1465,-1.6387 c -3.271,-4.2858 -6.5031,-8.6028 -9.6973,-12.9472 z m 1468.3418,23.8086 c -3.3311,4.2393 -6.7017,8.4461 -10.1093,12.625 l 2.0937,1.707 c 3.4175,-4.1911 6.7972,-8.4114 10.1387,-12.6641 z m -1448.7226,1.916 -2.1192,1.6738 c 3.3528,4.2439 6.7462,8.4563 10.1739,12.6387 l 2.0879,-1.711 c -3.4181,-4.1707 -6.8004,-8.371 -10.1426,-12.6015 z m 1428.2832,23.1582 c -3.4797,4.1192 -6.9941,8.2083 -10.5469,12.2636 l 2.0313,1.7793 c 3.564,-4.0681 7.0885,-8.1697 10.5781,-12.3007 z m -1407.7774,1.8633 -2.0586,1.746 c 3.5,4.1227 7.037,8.2148 10.6114,12.2735 l 2.0273,-1.7832 c -3.5634,-4.0463 -7.0905,-8.1259 -10.5801,-12.2363 z m 1386.4688,22.4785 c -3.6206,3.9951 -7.2769,7.9566 -10.9688,11.8867 l 1.9668,1.8496 c 3.7026,-3.9415 7.3722,-7.9144 11.0039,-11.9219 z m -1365.0977,1.8066 -1.9941,1.8203 c 3.643,3.9966 7.3209,7.9615 11.0351,11.8926 l 1.961,-1.8555 c -3.7028,-3.919 -7.3695,-7.8723 -11.002,-11.8574 z m 1342.9512,21.7734 c -3.7579,3.8662 -7.5533,7.6982 -11.3809,11.4961 l 1.9024,1.9161 c 3.8387,-3.8091 7.6445,-7.6511 11.4141,-11.5293 z m -1320.7402,1.7481 -1.9297,1.8887 c 3.7798,3.8685 7.5956,7.7005 11.4433,11.5 l 1.8965,-1.9219 c -3.837,-3.7889 -7.6424,-7.6106 -11.4101,-11.4668 z m 1297.7793,21.043 c -3.8926,3.7314 -7.8167,7.4297 -11.7754,11.0898 l 1.832,1.9824 c 3.9712,-3.6716 7.9087,-7.3809 11.8125,-11.123 z m -1274.7578,1.6875 -1.8633,1.9531 c 3.9132,3.7327 7.8594,7.4305 11.8398,11.0918 l 1.8281,-1.9863 c -3.9682,-3.6502 -7.9031,-7.3371 -11.8046,-11.0586 z m 1251.0136,20.2851 c -4.0203,3.5929 -8.0741,7.1495 -12.1582,10.6699 l 1.7637,2.045 c 4.0962,-3.5309 8.1609,-7.0995 12.1934,-10.7032 z m -1227.2129,1.6231 -1.7929,2.0195 c 4.0425,3.5916 8.1159,7.1485 12.2226,10.668 l 1.7578,-2.0489 c -4.0938,-3.5084 -8.1563,-7.0571 -12.1875,-10.6386 z m 1202.711,19.5019 c -4.143,3.4503 -8.3183,6.8614 -12.5235,10.2363 l 1.6914,2.1075 c 4.2176,-3.3849 8.4047,-6.8086 12.5606,-10.2696 z m -1178.1524,1.5606 -1.7226,2.0781 c 4.165,3.4502 8.3622,6.8601 12.5879,10.2344 l 1.6855,-2.1094 c -4.2137,-3.3647 -8.3989,-6.7638 -12.5508,-10.2031 z m 1152.9278,18.6933 c -4.2634,3.3016 -8.5557,6.567 -12.877,9.791 l 1.6152,2.1641 c 4.335,-3.2342 8.6386,-6.5094 12.9141,-9.8203 z m -1127.6485,1.4922 -1.6484,2.1387 c 4.2838,3.3005 8.5981,6.5644 12.9414,9.7871 l 1.6074,-2.168 c -4.3298,-3.2127 -8.6291,-6.4669 -12.9004,-9.7578 z m 1101.7266,17.8633 c -4.3746,3.1513 -8.7798,6.2611 -13.2109,9.334 l 1.539,2.2187 c 4.4437,-3.0815 8.8616,-6.2001 13.25,-9.3613 z m -1075.7539,1.4238 -1.5723,2.1953 c 4.397,3.1489 8.8233,6.2566 13.2754,9.3262 l 1.5313,-2.2227 c -4.4393,-3.0607 -8.8509,-6.1595 -13.2344,-9.2988 z m 1049.1699,17.0117 c -4.4836,2.9952 -8.9945,5.9501 -13.5312,8.8633 l 1.4589,2.2715 c 4.5509,-2.9223 9.0755,-5.8866 13.5723,-8.8906 z m -1022.5371,1.3536 -1.4941,2.248 c 4.5045,2.9928 9.0374,5.945 13.5957,8.8555 l 1.4511,-2.2754 c -4.5444,-2.9016 -9.0618,-5.8444 -13.5527,-8.8281 z m 995.3223,16.1367 c -4.5851,2.8365 -9.1985,5.6299 -13.834,8.3847 l 1.3808,2.3223 c 4.6487,-2.7626 9.2737,-5.5648 13.8731,-8.4102 z m -968.0625,1.2812 -1.4121,2.3008 c 4.6071,2.8319 9.2394,5.6237 13.8964,8.3731 l 1.3711,-2.3262 c -4.6431,-2.7412 -9.2619,-5.5241 -13.8554,-8.3477 z m 940.25,15.2442 c -4.6823,2.6737 -9.3874,5.3063 -14.1172,7.8945 l 1.2949,2.3672 c 4.7443,-2.5962 9.4659,-5.2343 14.1621,-7.916 z m -912.3926,1.207 -1.334,2.3496 c 4.7032,2.6698 9.4308,5.295 14.1816,7.8789 l 1.2911,-2.3711 c -4.7366,-2.5762 -9.4498,-5.1957 -14.1387,-7.8574 z m 884.0195,14.334 c -4.7728,2.508 -9.5694,4.9716 -14.3867,7.3945 l 1.2129,2.4121 c 4.831,-2.4298 9.6421,-4.9022 14.4297,-7.4179 z m -855.6055,1.1328 -1.25,2.3926 c 4.7944,2.5017 9.6108,4.9628 14.4493,7.3789 l 1.207,-2.416 c -4.8238,-2.4088 -9.6258,-4.861 -14.4063,-7.3555 z m 826.7032,13.4023 c -4.8581,2.3392 -9.7372,4.6343 -14.6367,6.8848 l 1.1269,2.4531 c 4.9146,-2.2574 9.809,-4.5582 14.6816,-6.9043 z m -797.7637,1.0567 -1.1641,2.4355 c 4.8788,2.3337 9.7791,4.6225 14.6993,6.8672 l 1.1191,-2.457 c -4.9055,-2.238 -9.7904,-4.5191 -14.6543,-6.8457 z m 768.3711,12.457 c -4.9369,2.1674 -9.894,4.2897 -14.8691,6.3691 l 1.041,2.4903 c 4.9894,-2.0854 9.962,-4.2127 14.914,-6.3867 z m -738.9434,0.9785 -1.0781,2.4746 c 4.9578,2.1597 9.9358,4.2765 14.9316,6.3477 l 1.0333,-2.4942 c -4.9808,-2.0648 -9.9433,-4.1747 -14.8868,-6.3281 z m 709.0957,11.4961 c -5.01,1.993 -10.0388,3.9421 -15.0839,5.8438 l 0.9531,2.5254 c 5.0606,-1.9076 10.1039,-3.8605 15.1289,-5.8594 z m -679.2129,0.9004 -0.9921,2.5098 c 5.0302,1.9861 10.0791,3.9278 15.1445,5.8222 l 0.9453,-2.5293 c -5.0502,-1.8887 -10.0827,-3.8226 -15.0977,-5.8027 z m 648.9454,10.5215 c -5.0766,1.8162 -10.1707,3.5867 -15.2793,5.3125 l 0.8632,2.5566 c 5.1233,-1.7307 10.2321,-3.5043 15.3243,-5.3261 z m -618.6485,0.8203 -0.9023,2.5449 c 5.0969,1.807 10.2111,3.5691 15.3398,5.2852 l 0.8555,-2.5606 c -5.1131,-1.7108 -10.2108,-3.4677 -15.293,-5.2695 z m 587.9981,9.5332 c -5.1374,1.6371 -10.2891,3.228 -15.4551,4.7715 l 0.7734,2.5879 c 5.1819,-1.5483 10.3493,-3.1452 15.502,-4.7871 z m -557.3203,0.7383 -0.8125,2.5742 c 5.157,1.6288 10.328,3.2093 15.5136,4.7441 l 0.7657,-2.5878 c -5.1702,-1.5303 -10.3255,-3.1066 -15.4668,-4.7305 z m 526.3261,8.5332 c -5.1914,1.4559 -10.3963,2.8652 -15.6133,4.2285 l 0.6836,2.6113 c 5.2321,-1.3672 10.4529,-2.7798 15.6602,-4.2402 z m -495.3086,0.6562 -0.7226,2.6016 c 5.211,1.4452 10.4354,2.847 15.6719,4.1992 l 0.6757,-2.6152 c -5.2204,-1.3481 -10.4289,-2.7445 -15.625,-4.1856 z m 464.0098,7.5235 c -5.2394,1.2731 -10.4904,2.5 -15.752,3.6777 l 0.5899,2.6348 c 5.2776,-1.1813 10.5437,-2.4106 15.7988,-3.6875 z m -432.6895,0.5742 -0.6289,2.625 c 5.2586,1.2635 10.5283,2.4786 15.8086,3.6465 l 0.5821,-2.6367 c -5.2647,-1.1644 -10.5193,-2.3752 -15.7618,-3.6348 z m 401.1231,6.5039 c -5.2811,1.0879 -10.5715,2.1296 -15.8711,3.1231 l 0.4961,2.6523 c 5.3154,-0.9964 10.6231,-2.0397 15.9199,-3.1309 z m -369.5371,0.4902 -0.5371,2.6465 c 5.2994,1.0756 10.609,2.1067 15.9277,3.0879 l 0.4883,-2.6562 c -5.302,-0.9782 -10.5942,-2.0055 -15.8789,-3.0782 z m 337.7402,5.4746 c -5.3155,0.903 -10.6394,1.7582 -15.9707,2.5645 l 0.4043,2.668 c 5.3472,-0.8088 10.6877,-1.6646 16.0195,-2.5703 z m -305.9277,0.4043 -0.4453,2.6641 c 5.3343,0.8919 10.6764,1.7339 16.0254,2.5293 l 0.3984,-2.6719 c -5.3335,-0.7931 -10.6608,-1.6323 -15.9785,-2.5215 z m 273.9433,4.4434 c -5.345,0.7136 -10.6968,1.382 -16.0527,2 l 0.3106,2.6836 c 5.3728,-0.62 10.7397,-1.2923 16.0996,-2.0078 z m -241.9453,0.3203 -0.3515,2.6758 c 5.3619,0.7024 10.731,1.3592 16.1054,1.9648 l 0.3028,-2.6836 c -5.3576,-0.6037 -10.7102,-1.2566 -16.0567,-1.957 z m 209.8086,3.4004 c -5.3654,0.5284 -10.7363,1.0056 -16.1113,1.4375 l 0.2148,2.6914 c 5.3902,-0.4332 10.7777,-0.9133 16.1602,-1.4433 z m -177.6621,0.2344 -0.2578,2.6875 c 5.3838,0.5153 10.7727,0.9814 16.1641,1.4004 l 0.2089,-2.6934 c -5.376,-0.4178 -10.7482,-0.8808 -16.1152,-1.3945 z m 145.4141,2.3574 c -5.3814,0.3387 -10.7642,0.63 -16.1504,0.8711 l 0.1211,2.6973 c 5.4029,-0.2419 10.802,-0.5353 16.1992,-0.875 z m -113.1602,0.1484 -0.164,2.6954 c 5.3983,0.3262 10.7999,0.6038 16.2031,0.832 l 0.1133,-2.6973 c -5.3871,-0.2275 -10.7705,-0.5048 -16.1524,-0.8301 z m 80.8438,1.3106 c -5.3901,0.1491 -10.7825,0.252 -16.1739,0.3047 l 0.027,2.6992 c 5.408,-0.053 10.815,-0.1551 16.2207,-0.3047 z m -48.5235,0.064 -0.066,2.6993 c 5.4058,0.1346 10.8123,0.2239 16.2207,0.2617 l 0.02,-2.6992 c -5.3913,-0.038 -10.7831,-0.1275 -16.1739,-0.2618 z"
       id="path1835" />
    <path
       style="opacity:1;fill:none;fill-opacity:1;stroke:#ffffff;stroke-width:2;stroke-dasharray:16,2;stroke-dashoffset:0;stroke-opacity:1"
       d="m 1583.4752,2389.7268 c 7.5325,12.8784 19.2016,23.3397 32.9276,29.1867 10.5753,4.5049 22.2727,6.2705 33.7293,5.334 11.4566,-0.9364 22.6589,-4.5526 32.627,-10.277 11.5558,-6.6362 21.4945,-16.1552 28.3029,-27.6104 6.8083,-11.4552 10.4305,-24.8397 9.9564,-38.157 -0.4497,-12.6323 -4.4713,-24.8274 -8.3688,-36.8518 -29.9352,-92.3557 -54.8416,-187.0855 -61.3782,-283.9512 -6.5366,-96.8658 6.0436,-196.4825 48.1033,-283.9849 5.131,-10.6748 10.8767,-21.395 19.7421,-29.2488 9.6948,-8.5885 22.5792,-13.1062 35.5001,-14.0018 10.476,-0.7261 21.1266,0.8319 30.8817,4.7193 8.9193,3.5544 17.1907,9.1731 22.7902,16.9727 4.7294,6.5877 7.3902,14.4774 8.7855,22.466 1.3954,7.9887 1.5839,16.1326 1.7644,24.2402 1.599,71.8022 2.9402,144.3606 20.569,213.9834 17.6288,69.6228 53.3622,137.1279 111.5677,179.2019 35.1279,25.3923 77.2031,40.5414 120.2243,45.8249 43.0211,5.2835 86.96,0.8985 128.81,-10.3849 83.6998,-22.567 157.743,-71.779 225.1483,-126.2901 9.4703,-7.6587 18.9121,-15.5059 26.5799,-24.9688 9.9209,-12.2435 16.6962,-27.2814 17.8158,-43 0.8923,-12.5279 -1.8614,-25.318 -7.9827,-36.285 -7.9913,-14.3173 -21.5829,-25.2148 -36.9791,-30.8542 -14.6934,-5.382 -31.1473,-6.0795 -46.0962,-1.4541 -14.9488,4.6253 -28.2598,14.6372 -36.4107,27.9948 -7.2469,11.8761 -10.2649,25.7573 -14.0427,39.1471 -17.8524,63.2743 -55.0992,120.3958 -103.22,165.1925 -48.1207,44.7967 -106.8352,77.5199 -169.0789,98.6874 -124.4876,42.335 -260.1148,38.5914 -390.2642,19.8684 -5.7401,-0.8258 -11.4886,-1.6808 -17.2826,-1.9279 -19.7291,-0.8413 -40.0124,5.8794 -54.1536,19.6624 -11.9775,11.6741 -19.1246,27.9928 -20.3196,44.6756 -1.0446,14.5833 2.3702,29.4701 9.7518,42.0906 z"
       id="path1847"
       sodipodi:nodetypes="ssssssssssssssssssssssss" />
    <path
       d="m 1999.8541,1238.5981 c -33.6775,0 -60.9999,27.3224 -60.9999,60.9999 0,33.6775 27.3224,60.9999 60.9999,60.9999 33.6775,0 60.9999,-27.3224 60.9999,-60.9999 0,-33.6775 -27.3224,-60.9999 -60.9999,-60.9999 z m 0,1.9998 c 32.5966,0 59,26.4035 59,59.0001 0,32.5967 -26.4034,59 -59,59 -32.5966,0 -59.0001,-26.4033 -59.0001,-59 0,-32.5966 26.4035,-59.0001 59.0001,-59.0001 z"
       style="baseline-shift:baseline;display:inline;overflow:visible;vector-effect:none;fill:#ffffff;enable-background:accumulate;stop-color:#000000"
       id="path1554-6" />
    <path
       id="path1849-1-5"
       style="fill:#ff2626;stroke:#ffffff;stroke-width:2"
       d="m 1351.8843,2655.2764 a 5,5 0 0 1 -5,5 5,5 0 0 1 -5,-5 5,5 0 0 1 5,-5 5,5 0 0 1 5,5 z" />
    <path
       id="path1849-1-37"
       style="fill:#ff2626;stroke:#ffffff;stroke-width:2"
       d="m 2929.3765,1998.903 a 5,5 0 0 1 -5,5 5,5 0 0 1 -5,-5 5,5 0 0 1 5,-5 5,5 0 0 1 5,5 z" />
  </g>
  <g
     inkscape:groupmode="layer"
     id="layer2"
     inkscape:label="Points"
     class="planet-group">
    <path
       style="opacity:1;fill:#000080;fill-opacity:1;stroke:none;stroke-width:13.0665;stroke-dasharray:none;stroke-opacity:1"
       d="m 7547.0433,8079.6224 c -18.4081,-8.113 -25.5592,-31.16 -14.8891,-47.9851 10.8702,-17.1405 34.7361,-20.5133 49.2468,-6.9598 18.167,16.9686 13.1747,45.1356 -9.6933,54.6904 -7.7544,3.24 -17.6586,3.3422 -24.6644,0.2545 z"
       id="Void"
       inkscape:label="Void"
       transform="scale(0.26458333)" />
    <path
       style="opacity:1;fill:#000080;fill-opacity:1;stroke:none;stroke-width:13.0665;stroke-dasharray:none;stroke-opacity:1"
       d="m 7396.9239,7590.3297 c -8.5593,-3.0518 -14.6117,-8.6973 -18.6086,-17.3575 -9.9314,-21.5184 5.5178,-45.8077 29.1361,-45.8077 20.7956,0 34.4076,14.4026 32.9292,34.8417 -0.8781,12.1395 -7.0151,20.9883 -18.6947,26.9555 -8.6513,4.4201 -15.189,4.7812 -24.762,1.368 z"
       id="Hellcoast"
       inkscape:label="Hellcoast"
       sodipodi:nodetypes="ssssss"
       transform="scale(0.26458333)" />
    <path
       style="opacity:1;fill:#000080;fill-opacity:1;stroke:none;stroke-width:13.0665;stroke-dasharray:none;stroke-opacity:1"
       d="m 7759.6604,7376.0845 c -18.408,-8.113 -25.5592,-31.1601 -14.8891,-47.9851 10.8702,-17.1405 34.7362,-20.5134 49.2469,-6.9598 18.1669,16.9686 13.1746,45.1355 -9.6934,54.6904 -7.7543,3.24 -17.6586,3.3422 -24.6644,0.2545 z"
       id="Jetaras"
       sodipodi:nodetypes="sssss"
       inkscape:label="Jetaras"
       transform="scale(0.26458333)" />
    <path
       style="opacity:1;fill:#000080;fill-opacity:1;stroke:none;stroke-width:13.0665;stroke-dasharray:none;stroke-opacity:1"
       d="m 9056.1063,7588.244 c -13.1297,-6.9374 -18.8616,-17.2323 -17.7961,-31.9632 0.8781,-12.1396 7.0151,-20.9884 18.6947,-26.9556 27.3442,-13.9703 56.5361,16.0581 42.9314,44.1616 -5.3231,10.996 -16.3376,17.6581 -29.0433,17.5665 -5.2984,-0.038 -11.9249,-1.2971 -14.7867,-2.8093 z"
       id="Ion"
       transform="scale(0.26458333)"
       inkscape:label="Ion" />
    <path
       style="opacity:1;fill:#000080;fill-opacity:1;stroke:none;stroke-width:13.0665;stroke-dasharray:none;stroke-opacity:1"
       d="m 6639.6312,6681.0311 c -9.7461,-3.4719 -14.9595,-7.8642 -19.4794,-16.4113 -13.0454,-24.6692 10.3344,-54.0189 37.2564,-46.7696 32.6038,8.7793 32.1768,54.9015 -0.591,63.8522 -8.522,2.3278 -8.7972,2.3171 -17.186,-0.6713 z"
       id="Draconia"
       transform="scale(0.26458333)"
       inkscape:label="Draconia" />
    <path
       style="opacity:1;fill:#000080;fill-opacity:1;stroke:none;stroke-width:13.0665;stroke-dasharray:none;stroke-opacity:1"
       d="m 6214.7534,8927.3873 c -15.9842,-4.9952 -24.6365,-16.2477 -24.6365,-32.0403 0,-29.3692 32.5838,-43.7319 54.4321,-23.9933 8.1553,7.3679 11.0179,15.2923 9.9922,27.6612 -0.5821,7.0188 -2.0505,10.9324 -5.927,15.7958 -8.2119,10.3027 -23.2565,15.8906 -33.8608,12.5766 z"
       id="Saltar"
       transform="scale(0.26458333)"
       inkscape:label="Saltar" />
    <path
       style="opacity:1;fill:#000080;fill-opacity:1;stroke:none;stroke-width:13.0665;stroke-dasharray:none;stroke-opacity:1"
       d="m 7544.1111,4942.8457 c -13.0733,-6.9045 -20.4829,-23.0225 -16.8539,-36.6625 8.9657,-33.699 54.8115,-33.6806 63.7795,0.026 2.5449,9.5651 0.8982,17.7809 -5.2708,26.2969 -9.5222,13.1449 -27.768,17.6741 -41.6548,10.34 z"
       id="Wandacker"
       transform="scale(0.26458333)"
       inkscape:label="Wandacker" />
    <path
       style="opacity:1;fill:#000080;fill-opacity:1;stroke:none;stroke-width:8.36807;stroke-dasharray:none;stroke-opacity:1"
       d="m 10729.11,10783.151 c -22.303,-7.707 -29.919,-35.264 -14.567,-52.705 6.778,-7.701 12.894,-10.809 22.476,-11.424 11.579,-0.743 18.208,1.701 26.086,9.62 4.738,4.763 6.618,7.672 8.164,12.631 8.213,26.344 -16.39,50.783 -42.159,41.878 z"
       id="Xan"
       transform="scale(0.26458333)"
       inkscape:label="Xan" />
    <path
       style="opacity:1;fill:#800080;fill-opacity:1;stroke:none;stroke-width:5.53341;stroke-dasharray:none;stroke-opacity:1"
       d="m 7365.2561,4936.0085 c -4.1448,-1.8576 -7.2609,-5.3996 -8.4999,-9.6616 -1.0057,-3.4597 -1.0057,-4.2479 0,-7.7076 2.5164,-8.656 12.4544,-13.2803 20.1277,-9.3657 10.5927,5.4039 11.4949,19.1465 1.6825,25.6275 -3.4023,2.2472 -9.614,2.764 -13.3103,1.1074 z"
       id="The_Moon"
       transform="scale(0.26458333)"
       inkscape:label="The Moon" />
    <path
       style="opacity:1;fill:#800080;fill-opacity:1;stroke:none;stroke-width:11.4251;stroke-dasharray:none;stroke-opacity:1"
       d="m 7646.7544,4840.4059 c -4.8134,-3.7862 -6.4996,-10.8108 -4.0276,-16.7787 1.8605,-4.4915 8.1873,-8.8976 12.7765,-8.8976 4.5891,0 10.916,4.4061 12.7764,8.8976 3.9267,9.4798 -2.7389,19.82 -12.7764,19.82 -2.6854,0 -6.6223,-1.3686 -8.7489,-3.0413 z"
       id="Hophus"
       transform="scale(0.26458333)"
       inkscape:label="Hophus" />
    <path
       style="opacity:1;fill:#800080;fill-opacity:1;stroke:none;stroke-width:4.78337;stroke-dasharray:none;stroke-opacity:1"
       d="m 7548.5615,5001.2501 c -3.7471,-0.6605 -6.0686,-2.0173 -8.6884,-5.0779 -10.3723,-12.1177 3.5471,-29.4348 17.9075,-22.2786 8.1149,4.0438 10.5216,14.201 5.1289,21.6454 -3.2537,4.4916 -8.7822,6.6922 -14.348,5.7111 z"
       id="Enides"
       transform="scale(0.26458333)"
       inkscape:label="Enides" />
    <path
       style="opacity:1;fill:#800080;fill-opacity:1;stroke:none;stroke-width:4.58262;stroke-dasharray:none;stroke-opacity:1"
       d="m 10623.712,10867.576 c -8.315,-2.699 -12.656,-11.877 -9.304,-19.67 4.005,-9.31 15.512,-12.157 23.051,-5.703 7.94,6.796 6.764,19.013 -2.305,23.949 -3.588,1.953 -8.088,2.513 -11.442,1.424 z"
       id="Xan_A"
       transform="scale(0.26458333)"
       inkscape:label="Xan A" />
    <path
       style="opacity:1;fill:#800080;fill-opacity:1;stroke:none;stroke-width:4.58262;stroke-dasharray:none;stroke-opacity:1"
       d="m 10787.912,10688.845 c -2.839,-0.962 -7.387,-5.17 -8.691,-8.042 -3.092,-6.807 0.107,-15.667 6.959,-19.27 3.439,-1.808 9.43,-1.827 12.825,-0.04 10.764,5.666 11.429,19.996 1.206,25.987 -3.165,1.855 -8.956,2.497 -12.299,1.365 z"
       id="Xan_B"
       transform="scale(0.26458333)"
       inkscape:label="Xan B" />
    <path
       style="opacity:1;fill:#800080;fill-opacity:1;stroke:none;stroke-width:5.20008;stroke-dasharray:none;stroke-opacity:1"
       d="m 6277.3365,8953.6757 c -3.0772,-0.9033 -7.2332,-4.6509 -8.6728,-7.8206 -4.4915,-9.8889 2.9214,-21.0867 13.9121,-21.0153 4.6425,0.03 10.307,3.8066 12.8538,8.5696 1.4656,2.741 1.4656,9.6704 0,12.4113 -3.5785,6.6925 -11.031,9.9279 -18.0931,7.855 z"
       id="Tebara"
       transform="scale(0.26458333)"
       inkscape:label="Tebara" />
    <path
       style="opacity:1;fill:#800080;fill-opacity:1;stroke:none;stroke-width:5.20008;stroke-dasharray:none;stroke-opacity:1"
       d="m 6090.9082,9049.4488 c -7.8082,-3.7219 -10.6753,-12.1831 -6.7783,-20.0033 6.8695,-13.7852 27.7279,-8.3624 27.7562,7.216 0.01,3.4208 -3.4026,9.3124 -6.7176,11.6101 -3.8329,2.6568 -10.0752,3.1721 -14.2603,1.1772 z"
       id="Calichi"
       transform="scale(0.26458333)"
       inkscape:label="Calichi" />
    <path
       style="opacity:1;fill:#800080;fill-opacity:1;stroke:none;stroke-width:5.20008;stroke-dasharray:none;stroke-opacity:1"
       d="m 6137.9528,8807.5272 c -5.6924,-1.8169 -10.2253,-8.2329 -10.2367,-14.4893 -0.01,-3.4007 3.4028,-9.3126 6.6794,-11.5832 5.4422,-3.7715 13.0306,-3.169 18.1319,1.4397 11.4882,10.3789 0.2541,29.3659 -14.5746,24.6328 z"
       id="Allenia"
       transform="scale(0.26458333)"
       inkscape:label="Allenia" />
    <path
       style="opacity:1;fill:#800080;fill-opacity:1;stroke:none;stroke-width:9.93018;stroke-dasharray:none;stroke-opacity:1"
       d="m 6491.1626,6670.187 c -3.9841,-3.1339 -6.7395,-10.5518 -5.4745,-14.7377 1.2703,-4.2033 6.8667,-9.84 10.7331,-10.8105 4.5673,-1.1463 11.6643,1.4791 14.8106,5.479 6.8331,8.6869 -0.2657,22.7171 -11.4941,22.7171 -3.2332,0 -6.4857,-1.0043 -8.5751,-2.6479 z"
       id="Tithion"
       inkscape:label="Tithion"
       transform="scale(0.26458333)" />
    <path
       style="opacity:1;fill:#800080;fill-opacity:1;stroke:none;stroke-width:9.93018;stroke-dasharray:none;stroke-opacity:1"
       d="m 6728.4982,6623.4556 c -13.3809,-6.6008 -8.7979,-26.8141 6.0796,-26.8141 14.882,0 19.5756,20.3584 6.1612,26.7239 -5.6067,2.6606 -7.0093,2.6709 -12.2408,0.09 z"
       id="Enov"
       inkscape:label="Enov"
       transform="scale(0.26458333)" />
    <path
       style="opacity:1;fill:#800080;fill-opacity:1;stroke:none;stroke-width:5.79769;stroke-dasharray:none;stroke-opacity:1"
       d="m 8994.8306,7746.8099 c -11.2965,-3.2101 -14.3924,-17.8493 -5.3787,-25.4339 2.2137,-1.8627 6.6184,-3.5688 9.2137,-3.5688 2.5952,0 6.9999,1.7061 9.2136,3.5688 9.2287,7.7655 5.945,22.2906 -5.7622,25.4885 -3.5355,0.9657 -3.7001,0.9645 -7.2864,-0.055 z"
       id="Tophadus"
       transform="scale(0.26458333)"
       inkscape:label="Tophadus" />
    <path
       style="opacity:1;fill:#800080;fill-opacity:1;stroke:none;stroke-width:5.79769;stroke-dasharray:none;stroke-opacity:1"
       d="m 9140.1745,7580.6334 c -5.8655,-2.8025 -8.8203,-7.3661 -8.8203,-13.6222 0,-4.5639 1.4825,-7.8682 4.8611,-10.8346 9.0921,-7.9831 23.1651,-2.1416 24.0834,9.9966 0.8049,10.6386 -10.7483,18.9401 -20.1242,14.4602 z"
       id="Zimurn"
       transform="scale(0.26458333)"
       inkscape:label="Zimurn" />
    <path
       style="opacity:1;fill:#000080;fill-opacity:1;stroke:none;stroke-width:2.08412;stroke-dasharray:none;stroke-opacity:1"
       d="m 2209.8323,12938.035 c -2.5427,-0.378 -5.4831,-1.067 -7.4349,-1.744 -9.92,-3.438 -17.8561,-11.525 -21.0804,-21.481 -1.2612,-3.895 -1.5385,-5.859 -1.5238,-10.796 0.012,-3.972 0.1062,-4.92 0.7437,-7.475 1.5753,-6.312 4.2971,-11.162 8.8927,-15.846 5.1009,-5.198 10.4088,-8.098 17.6456,-9.641 2.7681,-0.59 9.1178,-0.674 11.9934,-0.158 12.1869,2.185 22.1617,10.558 26.3174,22.092 1.8803,5.218 2.4544,12.153 1.4391,17.382 -2.6713,13.756 -12.9732,24.254 -26.6536,27.159 -2.0123,0.428 -8.6777,0.755 -10.3392,0.508 z"
       id="Brion_7"
       transform="scale(0.26458333)"
       inkscape:label="Brion 7" />
    <path
       style="opacity:1;fill:#800080;fill-opacity:1;stroke:#ffffff;stroke-width:0.77707;stroke-dasharray:none;stroke-dashoffset:0;stroke-opacity:1"
       d="m 8990.513,7468.9929 c -4.0037,-1.2786 -7.3342,-4.1646 -9.217,-7.9868 -0.9862,-2.0021 -1.114,-2.7334 -1.114,-6.3736 0,-3.903 0.072,-4.2441 1.4092,-6.7111 5.886,-10.856 21.0422,-10.7126 26.4345,0.2501 1.2422,2.5256 1.3511,3.0641 1.3471,6.6604 -0.01,4.7464 -0.7782,6.7392 -3.8904,10.0299 -3.8147,4.0335 -9.9625,5.7301 -14.9694,4.1311 z"
       id="Hoter"
       transform="scale(0.26458333)"
       inkscape:label="Hoter" />
    <path
       id="Aepra"
       style="opacity:1;fill:#800080;stroke:#ffffff;stroke-width:2"
       d="m 1690.2571,2219.6228 a 5,5 0 0 1 -5,5 5,5 0 0 1 -5,-5 5,5 0 0 1 5,-5 5,5 0 0 1 5,5 z"
       inkscape:label="Aepra" />
    <path
       id="Point_9"
       style="opacity:1;fill:#ff2626;stroke:#ffffff;stroke-width:2"
       d="m 2005.1749,1779.6511 a 5,5 0 0 1 -5,5 5,5 0 0 1 -5,-5 5,5 0 0 1 5,-5 5,5 0 0 1 5,5 z"
       inkscape:label="Point 9" />
    <path
       id="Point_8"
       style="fill:#ff2626;stroke:#ffffff;stroke-width:2"
       d="m 1827.4543,1867.6779 a 5,5 0 0 1 -5,5 5,5 0 0 1 -5,-5 5,5 0 0 1 5,-5 5,5 0 0 1 5,5 z"
       inkscape:label="Point 8" />
    <path
       id="Point_7"
       style="fill:#ff2626;stroke:#ffffff;stroke-width:2"
       d="m 2004.9395,2152.0744 a 5,5 0 0 1 -5,5 5,5 0 0 1 -5,-5 5,5 0 0 1 5,-5 5,5 0 0 1 5,5 z"
       inkscape:label="Point 7" />
    <path
       id="Point_6"
       style="fill:#ff2626;stroke:#ffffff;stroke-width:2"
       d="m 2079.6091,2207.2422 a 5,5 0 0 1 -5,5 5,5 0 0 1 -5,-5 5,5 0 0 1 5,-5 5,5 0 0 1 5,5 z"
       inkscape:label="Point 6" />
    <path
       id="Point_5"
       style="fill:#ff2626;stroke:#ffffff;stroke-width:2"
       d="m 2548.2312,1775.316 a 5,5 0 0 1 -5,5 5,5 0 0 1 -5,-5 5,5 0 0 1 5,-5 5,5 0 0 1 5,5 z"
       inkscape:label="Point 5" />
    <path
       id="Point_4"
       style="fill:#ff2626;stroke:#ffffff;stroke-width:2"
       d="m 1459.684,3472.3748 a 5,5 0 0 1 -5,5 5,5 0 0 1 -5,-5 5,5 0 0 1 5,-5 5,5 0 0 1 5,5 z"
       inkscape:label="Point 4" />
    <path
       id="Point_3"
       style="fill:#ff2626;stroke:#ffffff;stroke-width:2"
       d="m 3691.1123,316.21643 a 5,5 0 0 1 -5,5 5,5 0 0 1 -5,-5 5,5 0 0 1 5,-5 5,5 0 0 1 5,5 z"
       inkscape:label="Point 3" />
    <path
       id="Point_2"
       style="fill:#ff2626;stroke:#ffffff;stroke-width:2"
       d="m 2005.3804,1600.4509 a 5,5 0 0 1 -5,5 5,5 0 0 1 -5,-5 5,5 0 0 1 5,-5 5,5 0 0 1 5,5 z"
       inkscape:label="Point 2" />
    <path
       id="path1849-1-6"
       style="fill:#ff2626;stroke:#ffffff;stroke-width:2"
       d="m 2005.2479,2923.8662 a 5,5 0 0 1 -5,5 5,5 0 0 1 -5,-5 5,5 0 0 1 5,-5 5,5 0 0 1 5,5 z"
       inkscape:label="Point 1" />
    <path
       id="Sun"
       style="fill:#ff2626;stroke:#ffffff;stroke-width:2"
       d="m 2004.5039,1999.9377 a 5,5 0 0 1 -5,5 5,5 0 0 1 -5,-5 5,5 0 0 1 5,-5 5,5 0 0 1 5,5 z"
       inkscape:label="Sun" />
  </g>
</svg>
